<svg version="1.1" id="Layer_1" xmlns="http://www.w3.org/2000/svg" xmlns:xlink="http://www.w3.org/1999/xlink" x="0px" y="0px"
	 width="100%" viewBox="0 0 800 800" enable-background="new 0 0 800 800" xml:space="preserve">
<path fill="#141414" opacity="1.000000" stroke="none" 
	d="
M801.000000,183.000000 
	C801.000000,328.357422 801.000000,473.714844 800.632935,619.703186 
	C796.188721,657.500427 784.819153,692.042175 762.855286,722.623108 
	C733.772644,763.115601 695.502380,789.554382 645.837769,798.312378 
	C641.211060,799.128296 636.611938,800.100403 632.000000,801.000000 
	C477.642578,801.000000 323.285187,801.000000 168.304901,800.637390 
	C165.059006,799.844299 162.441574,799.375427 159.812057,798.989014 
	C124.356766,793.778564 93.469620,778.667664 67.257652,754.580750 
	C31.814087,722.010620 11.013608,681.416809 3.734072,633.852173 
	C3.022721,629.204163 1.920685,624.615967 1.000001,620.000000 
	C1.000000,474.309265 1.000000,328.618500 1.366454,182.295746 
	C5.803344,144.492157 17.182077,109.950211 39.147003,79.367935 
	C68.230713,38.874008 106.505775,12.443304 156.170074,3.668727 
	C160.146439,2.966194 164.058212,1.898176 168.000000,1.000001 
	C322.357422,1.000000 476.714844,1.000000 631.709839,1.370563 
	C635.806396,2.184374 639.275085,2.562940 642.722778,3.080868 
	C677.790588,8.348830 708.406250,23.309717 734.394165,47.091866 
	C770.027710,79.700951 790.963562,120.401405 798.254517,168.144440 
	C799.014343,173.120026 800.077515,178.049271 801.000000,183.000000 
M394.700226,703.075562 
	C402.592682,703.669800 409.662506,701.250916 415.482086,696.159851 
	C420.076752,692.140503 424.514496,687.684998 428.008789,682.711365 
	C439.676361,666.104431 447.826294,647.724365 453.985504,628.428284 
	C454.876343,625.637390 456.047119,622.935913 457.561829,618.945801 
	C459.183258,622.100098 460.134521,624.136047 461.245300,626.080872 
	C467.663239,637.317749 473.504089,648.950134 480.749451,659.628296 
	C486.926147,668.731445 495.805328,674.767761 507.686981,674.152039 
	C518.295105,673.602295 526.072083,667.717590 532.603210,660.081604 
	C546.311279,644.054932 553.751831,624.785339 560.089539,605.066406 
	C569.592102,575.500671 575.131348,545.086426 579.267456,514.356262 
	C584.566956,474.982727 587.086670,435.401825 586.291992,395.748505 
	C585.682007,365.313354 583.633423,334.851471 580.832031,304.530121 
	C577.440918,267.825195 570.031860,231.786682 557.976746,196.852264 
	C552.430847,180.780807 546.238892,164.935364 535.502441,151.415161 
	C528.860779,143.051422 521.267273,135.705460 510.161621,134.058762 
	C496.157288,131.982269 486.364502,139.461060 479.111725,150.106369 
	C472.671997,159.558334 467.534821,169.896851 461.802887,179.832611 
	C460.590454,181.934219 459.291901,183.986130 457.466644,186.994400 
	C456.358643,184.113190 455.628998,182.318222 454.974609,180.496231 
	C452.332672,173.140121 450.033112,165.642151 447.021118,158.441696 
	C440.446564,142.724594 432.864014,127.548409 420.999847,114.967911 
	C406.289032,99.368980 388.300842,98.327400 372.437592,112.646797 
	C367.792969,116.839394 363.698486,121.846687 360.173859,127.038620 
	C346.438141,147.271988 338.721252,170.181335 332.019836,193.397720 
	C315.846039,249.430008 309.471558,306.943512 307.429718,364.991669 
	C305.946930,407.147308 306.948669,449.281799 310.879486,491.319489 
	C314.261444,527.487183 319.128387,563.411743 328.060364,598.680847 
	C335.237213,627.019592 344.041565,654.746826 360.908752,679.101318 
	C369.029266,690.826477 378.615692,700.867065 394.700226,703.075562 
M224.911636,599.583313 
	C253.029678,628.457092 310.233337,669.680847 321.675446,668.692871 
	C320.261139,667.032288 319.221680,665.616455 317.989838,664.394592 
	C297.543304,644.114502 281.598419,620.590881 268.908142,594.903870 
	C229.184952,514.498108 217.841110,429.512390 229.311310,341.150482 
	C235.351166,294.621826 248.287079,249.962006 269.145447,207.822250 
	C282.226074,181.395676 297.935822,156.738831 320.434326,137.067978 
	C321.666138,135.990967 322.710785,134.699844 323.842560,133.508392 
	C155.622757,204.653046 79.573105,434.554688 224.911636,599.583313 
M618.554138,465.859833 
	C620.378540,469.205017 621.828430,472.833435 624.101685,475.839111 
	C629.611023,483.123535 636.056091,482.992432 639.932129,474.720428 
	C644.116638,465.789825 648.062317,456.338684 649.712402,446.703644 
	C655.280884,414.189667 655.990112,381.538391 648.917542,349.034821 
	C646.998779,340.216431 644.828857,331.544220 638.850525,324.382385 
	C632.343872,316.587616 626.346924,316.991516 621.291016,325.859619 
	C619.576355,328.867218 618.220093,332.150085 617.176575,335.457520 
	C611.429016,353.673859 609.102173,372.476959 608.458252,391.467010 
	C607.607971,416.542999 609.545410,441.319427 618.554138,465.859833 
z"/>
<path fill="#FEFEFE" opacity="1.000000" stroke="none" 
	d="
M801.000000,182.531342 
	C800.077515,178.049271 799.014343,173.120026 798.254517,168.144440 
	C790.963562,120.401405 770.027710,79.700951 734.394165,47.091866 
	C708.406250,23.309717 677.790588,8.348830 642.722778,3.080868 
	C639.275085,2.562940 635.806396,2.184374 632.173706,1.370563 
	C688.263062,1.000000 744.526062,1.000000 801.000000,1.000000 
	C801.000000,61.354065 801.000000,121.708374 801.000000,182.531342 
z"/>
<path fill="#FEFEFE" opacity="1.000000" stroke="none" 
	d="
M632.468628,801.000000 
	C636.611938,800.100403 641.211060,799.128296 645.837769,798.312378 
	C695.502380,789.554382 733.772644,763.115601 762.855286,722.623108 
	C784.819153,692.042175 796.188721,657.500427 800.632935,620.167053 
	C801.000000,680.257812 801.000000,740.515686 801.000000,801.000000 
	C744.979309,801.000000 688.958313,801.000000 632.468628,801.000000 
z"/>
<path fill="#FEFEFE" opacity="1.000000" stroke="none" 
	d="
M1.000001,620.468628 
	C1.920685,624.615967 3.022721,629.204163 3.734072,633.852173 
	C11.013608,681.416809 31.814087,722.010620 67.257652,754.580750 
	C93.469620,778.667664 124.356766,793.778564 159.812057,798.989014 
	C162.441574,799.375427 165.059006,799.844299 167.841034,800.637390 
	C112.403389,801.000000 56.806778,801.000000 1.000000,801.000000 
	C1.000000,740.979248 1.000000,680.958313 1.000001,620.468628 
z"/>
<path fill="#FEFEFE" opacity="1.000000" stroke="none" 
	d="
M167.531342,1.000001 
	C164.058212,1.898176 160.146439,2.966194 156.170074,3.668727 
	C106.505775,12.443304 68.230713,38.874008 39.147003,79.367935 
	C17.182077,109.950211 5.803344,144.492157 1.366454,181.831879 
	C1.000000,121.742584 1.000000,61.485168 1.000000,1.000000 
	C56.354019,1.000000 111.708351,1.000000 167.531342,1.000001 
z"/>
<path fill="#EF6021" opacity="1.000000" stroke="none" 
	d="
M394.250793,703.058777 
	C378.615692,700.867065 369.029266,690.826477 360.908752,679.101318 
	C344.041565,654.746826 335.237213,627.019592 328.060364,598.680847 
	C319.128387,563.411743 314.261444,527.487183 310.879486,491.319489 
	C306.948669,449.281799 305.946930,407.147308 307.429718,364.991669 
	C309.471558,306.943512 315.846039,249.430008 332.019836,193.397720 
	C338.721252,170.181335 346.438141,147.271988 360.173859,127.038620 
	C363.698486,121.846687 367.792969,116.839394 372.437592,112.646797 
	C388.300842,98.327400 406.289032,99.368980 420.999847,114.967911 
	C432.864014,127.548409 440.446564,142.724594 447.021118,158.441696 
	C450.033112,165.642151 452.332672,173.140121 454.974609,180.496231 
	C455.628998,182.318222 456.358643,184.113190 457.466644,186.994400 
	C459.291901,183.986130 460.590454,181.934219 461.802887,179.832611 
	C467.534821,169.896851 472.671997,159.558334 479.111725,150.106369 
	C486.364502,139.461060 496.157288,131.982269 510.161621,134.058762 
	C521.267273,135.705460 528.860779,143.051422 535.502441,151.415161 
	C546.238892,164.935364 552.430847,180.780807 557.976746,196.852264 
	C570.031860,231.786682 577.440918,267.825195 580.832031,304.530121 
	C583.633423,334.851471 585.682007,365.313354 586.291992,395.748505 
	C587.086670,435.401825 584.566956,474.982727 579.267456,514.356262 
	C575.131348,545.086426 569.592102,575.500671 560.089539,605.066406 
	C553.751831,624.785339 546.311279,644.054932 532.603210,660.081604 
	C526.072083,667.717590 518.295105,673.602295 507.686981,674.152039 
	C495.805328,674.767761 486.926147,668.731445 480.749451,659.628296 
	C473.504089,648.950134 467.663239,637.317749 461.245300,626.080872 
	C460.134521,624.136047 459.183258,622.100098 457.561829,618.945801 
	C456.047119,622.935913 454.876343,625.637390 453.985504,628.428284 
	C447.826294,647.724365 439.676361,666.104431 428.008789,682.711365 
	C424.514496,687.684998 420.076752,692.140503 415.482086,696.159851 
	C409.662506,701.250916 402.592682,703.669800 394.250793,703.058777 
M363.093842,437.402008 
	C364.421021,466.716187 367.335938,495.856476 373.157288,524.642456 
	C378.249420,549.822754 384.719330,574.599426 397.043518,597.400818 
	C401.569763,605.775024 406.700653,613.789368 414.669708,619.457520 
	C423.298065,625.594482 431.951080,625.605652 440.624329,619.549805 
	C451.651428,611.850464 453.779816,607.098267 450.317810,595.253601 
	C433.779938,538.672485 428.611725,480.561584 427.144562,422.002228 
	C426.121246,381.158569 427.755127,340.393036 432.946533,299.815918 
	C436.858643,269.238098 442.151398,238.960510 451.609070,209.524002 
	C452.436249,206.949463 452.911194,203.826706 452.266602,201.283829 
	C447.538605,182.632416 425.621796,176.031937 411.533813,188.937927 
	C402.638977,197.086472 396.845734,207.436707 392.067230,218.292953 
	C375.208588,256.594025 368.966614,297.347015 365.095581,338.554321 
	C362.037445,371.108246 361.959717,403.764496 363.093842,437.402008 
M492.231476,347.893066 
	C491.304718,360.348114 489.976562,372.788574 489.524536,385.260834 
	C488.010406,427.037750 490.200073,468.524323 501.283295,509.097656 
	C504.793579,521.947937 509.028107,534.663147 517.145813,545.508606 
	C527.949829,559.943054 539.220459,559.506042 548.314575,543.891785 
	C552.971191,535.896423 556.906128,527.302795 559.890625,518.544556 
	C569.426392,490.561127 572.637451,461.388062 573.681396,432.072571 
	C574.403625,411.791321 573.877319,391.419373 572.912903,371.135284 
	C571.502441,341.470795 567.635620,312.067322 557.919250,283.840485 
	C555.035522,275.463135 550.905640,267.219727 545.852356,259.954346 
	C538.513062,249.402206 527.478882,248.872406 519.493713,258.974579 
	C513.839172,266.128265 509.455627,274.678802 506.186218,283.247406 
	C498.372406,303.725891 495.316925,325.385254 492.231476,347.893066 
z"/>
<path fill="#ED6022" opacity="1.000000" stroke="none" 
	d="
M224.669983,599.323914 
	C79.573105,434.554688 155.622757,204.653046 323.842560,133.508392 
	C322.710785,134.699844 321.666138,135.990967 320.434326,137.067978 
	C297.935822,156.738831 282.226074,181.395676 269.145447,207.822250 
	C248.287079,249.962006 235.351166,294.621826 229.311310,341.150482 
	C217.841110,429.512390 229.184952,514.498108 268.908142,594.903870 
	C281.598419,620.590881 297.543304,644.114502 317.989838,664.394592 
	C319.221680,665.616455 320.261139,667.032288 321.675446,668.692871 
	C310.233337,669.680847 253.029678,628.457092 224.669983,599.323914 
M226.969818,233.550018 
	C224.486374,231.484970 222.017075,230.883789 221.203873,234.805618 
	C220.873077,236.400955 221.967514,238.449677 222.853729,240.048004 
	C223.137817,240.560349 225.647736,240.603836 225.755356,240.325928 
	C226.520203,238.350800 226.925995,236.236603 226.969818,233.550018 
z"/>
<path fill="#EA5F23" opacity="1.000000" stroke="none" 
	d="
M618.390625,465.512573 
	C609.545410,441.319427 607.607971,416.542999 608.458252,391.467010 
	C609.102173,372.476959 611.429016,353.673859 617.176575,335.457520 
	C618.220093,332.150085 619.576355,328.867218 621.291016,325.859619 
	C626.346924,316.991516 632.343872,316.587616 638.850525,324.382385 
	C644.828857,331.544220 646.998779,340.216431 648.917542,349.034821 
	C655.990112,381.538391 655.280884,414.189667 649.712402,446.703644 
	C648.062317,456.338684 644.116638,465.789825 639.932129,474.720428 
	C636.056091,482.992432 629.611023,483.123535 624.101685,475.839111 
	C621.828430,472.833435 620.378540,469.205017 618.390625,465.512573 
z"/>
<path fill="#151414" opacity="1.000000" stroke="none" 
	d="
M363.082336,436.913818 
	C361.959717,403.764496 362.037445,371.108246 365.095581,338.554321 
	C368.966614,297.347015 375.208588,256.594025 392.067230,218.292953 
	C396.845734,207.436707 402.638977,197.086472 411.533813,188.937927 
	C425.621796,176.031937 447.538605,182.632416 452.266602,201.283829 
	C452.911194,203.826706 452.436249,206.949463 451.609070,209.524002 
	C442.151398,238.960510 436.858643,269.238098 432.946533,299.815918 
	C427.755127,340.393036 426.121246,381.158569 427.144562,422.002228 
	C428.611725,480.561584 433.779938,538.672485 450.317810,595.253601 
	C453.779816,607.098267 451.651428,611.850464 440.624329,619.549805 
	C431.951080,625.605652 423.298065,625.594482 414.669708,619.457520 
	C406.700653,613.789368 401.569763,605.775024 397.043518,597.400818 
	C384.719330,574.599426 378.249420,549.822754 373.157288,524.642456 
	C367.335938,495.856476 364.421021,466.716187 363.082336,436.913818 
z"/>
<path fill="#151414" opacity="1.000000" stroke="none" 
	d="
M492.316895,347.450012 
	C495.316925,325.385254 498.372406,303.725891 506.186218,283.247406 
	C509.455627,274.678802 513.839172,266.128265 519.493713,258.974579 
	C527.478882,248.872406 538.513062,249.402206 545.852356,259.954346 
	C550.905640,267.219727 555.035522,275.463135 557.919250,283.840485 
	C567.635620,312.067322 571.502441,341.470795 572.912903,371.135284 
	C573.877319,391.419373 574.403625,411.791321 573.681396,432.072571 
	C572.637451,461.388062 569.426392,490.561127 559.890625,518.544556 
	C556.906128,527.302795 552.971191,535.896423 548.314575,543.891785 
	C539.220459,559.506042 527.949829,559.943054 517.145813,545.508606 
	C509.028107,534.663147 504.793579,521.947937 501.283295,509.097656 
	C490.200073,468.524323 488.010406,427.037750 489.524536,385.260834 
	C489.976562,372.788574 491.304718,360.348114 492.316895,347.450012 
z"/>
<path fill="#F65F0D" opacity="1.000000" stroke="none" 
	d="
M227.207977,233.858368 
	C226.925995,236.236603 226.520203,238.350800 225.755356,240.325928 
	C225.647736,240.603836 223.137817,240.560349 222.853729,240.048004 
	C221.967514,238.449677 220.873077,236.400955 221.203873,234.805618 
	C222.017075,230.883789 224.486374,231.484970 227.207977,233.858368 
z"/>
</svg>