<?xml version="1.0" encoding="UTF-8"?>
<svg version="1.1" xmlns="http://www.w3.org/2000/svg" width="500" height="500">
<path d="M0 0 C1.88527055 -0.00807831 1.88527055 -0.00807831 3.80862737 -0.01631981 C7.25819644 -0.03064029 10.70752389 -0.02657226 14.15710545 -0.019153 C17.89277382 -0.01438994 21.62839225 -0.02695881 25.36404419 -0.03717041 C32.66791115 -0.05430368 39.97169187 -0.0552097 47.2755737 -0.04995751 C53.21763222 -0.04590373 59.1596654 -0.04737366 65.10172272 -0.05270576 C66.37393512 -0.0538284 66.37393512 -0.0538284 67.67184879 -0.05497371 C69.39528742 -0.05650531 71.11872605 -0.05804366 72.84216467 -0.05958868 C88.97890547 -0.07329435 105.11559769 -0.06789003 121.25233737 -0.05640347 C135.98375497 -0.04647685 150.71504686 -0.0594053 165.44644508 -0.08333766 C180.60606813 -0.10777835 195.76563275 -0.11732411 210.92527509 -0.11068493 C219.42282342 -0.10720325 227.92027519 -0.10935476 236.41780853 -0.12693596 C243.6528146 -0.14172043 250.88765612 -0.14221259 258.12265918 -0.12486505 C261.80689336 -0.11640299 265.49083441 -0.1140863 269.17505264 -0.1295166 C289.46168026 -0.2082915 306.53452288 0.81703754 324.85821533 10.38768005 C325.77860596 10.83885193 326.69899658 11.2900238 327.64727783 11.75486755 C354.38674118 25.39430563 374.99269518 51.31477893 384.85821533 79.38768005 C388.84672106 91.81879203 391.00756287 103.15844225 391.00538635 116.23175049 C391.00906304 117.42151212 391.01273973 118.61127375 391.01652783 119.83708876 C391.02561697 123.12718967 391.03025606 126.41726126 391.03291714 129.70737255 C391.03683606 133.26114535 391.04641333 136.81490393 391.05513 140.3686676 C391.07485131 148.94581248 391.08495581 157.52295846 391.0938578 166.10012034 C391.09824843 170.14683278 391.10361327 174.19354393 391.10884666 178.24025536 C391.12585577 191.70595051 391.1403472 205.17164488 391.14759541 218.63734913 C391.14950507 222.12826348 391.15142543 225.61917783 391.15338135 229.11009216 C391.15386509 229.97766219 391.15434883 230.84523222 391.15484723 231.73909225 C391.16313733 245.77505671 391.1884584 259.81093566 391.22096203 273.84686283 C391.25411534 288.28195146 391.27205168 302.71699676 391.27523965 317.15212363 C391.27739727 325.24683322 391.28603551 333.34141818 391.31170082 341.43609047 C391.33352132 348.33376724 391.34140301 355.23128909 391.33173404 362.12899647 C391.32722169 365.64118337 391.32889371 369.15305142 391.34849548 372.66519356 C391.52754813 411.03676145 380.4787966 441.48803182 353.85821533 469.38768005 C352.87981689 470.42795349 352.87981689 470.42795349 351.88165283 471.48924255 C335.54139746 488.42640223 310.97593564 500.0244863 287.38849926 500.76799679 C285.13711273 500.78548086 282.88556326 500.78720725 280.63414001 500.77536011 C278.75371316 500.78343841 278.75371316 500.78343841 276.83529788 500.79167992 C273.39938927 500.805981 269.96372363 500.80193865 266.52780259 500.79451311 C262.80510352 500.78974516 259.08245433 500.80232308 255.35977173 500.81253052 C248.08344735 500.82965383 240.80720957 500.83057198 233.53087028 500.82531761 C227.61124222 500.82126231 221.69163958 500.82273556 215.77201271 500.82806587 C214.92678196 500.82881429 214.08155121 500.82956272 213.2107074 500.83033382 C211.4931473 500.83186543 209.77558721 500.83340378 208.05802713 500.83494879 C191.98089346 500.84865061 175.90380858 500.84325263 159.82667605 500.83176357 C145.15028733 500.82183524 130.47402475 500.83476907 115.79765549 500.85869776 C100.69224133 500.88313855 85.5868858 500.89268433 70.48145229 500.88604504 C62.01521785 500.88256365 53.54908033 500.88471301 45.08286095 500.90229607 C37.87532726 500.91708058 30.66795875 500.91757254 23.46042808 500.90022516 C19.79036341 500.89176353 16.12059301 500.88944537 12.45054436 500.90487671 C-7.87685007 500.98411986 -24.80759015 499.9638079 -43.14178467 490.38768005 C-44.06217529 489.93650818 -44.98256592 489.4853363 -45.93084717 489.02049255 C-72.52315097 475.45611857 -93.52407957 449.43931994 -103.14178467 421.38768005 C-106.88613065 409.30563342 -109.29105762 398.3287918 -109.28895569 385.62590027 C-109.29263238 384.43290951 -109.29630906 383.23991875 -109.30009717 382.01077676 C-109.30919653 378.70700731 -109.31382767 375.40328743 -109.31648648 372.09951019 C-109.32040132 368.5327681 -109.32997901 364.96604022 -109.33869934 361.39930725 C-109.35843373 352.78763241 -109.36852754 344.17595645 -109.37742713 335.56426466 C-109.38181626 331.502109 -109.38718156 327.43995463 -109.392416 323.37779999 C-109.40942763 309.86153306 -109.42391869 296.34526692 -109.43116474 282.82899094 C-109.43307444 279.32381438 -109.4349948 275.81863783 -109.43695068 272.3134613 C-109.43743442 271.44233516 -109.43791816 270.57120901 -109.43841656 269.6736851 C-109.44670522 255.58269174 -109.47202269 241.49178359 -109.50453136 227.40082738 C-109.53768448 212.91152982 -109.55562106 198.42227543 -109.55880898 183.93293977 C-109.5609668 175.80691636 -109.5696077 167.68101709 -109.59527016 159.55503082 C-109.61709049 152.62988162 -109.62497249 145.70488672 -109.61530337 138.77970704 C-109.61079076 135.25335072 -109.61246456 131.72731196 -109.63206482 128.20100021 C-109.77643506 97.13512583 -103.79872153 66.16369097 -82.14178467 42.38768005 C-81.41088623 41.55107849 -80.67998779 40.71447693 -79.92694092 39.8525238 C-58.91318403 16.03693266 -32.60298501 -0.17054317 0 0 Z " fill="#161615" transform="translate(109.14178466796875,-0.3876800537109375)"/>
<path d="M0 0 C16.29928771 11.52876448 23.66786147 30.3426326 29.5625 48.8125 C32.44865785 46.31682233 33.72944736 43.62930546 35.3125 40.1875 C39.36603819 31.90026638 44.69276123 23.94892623 52.5625 18.8125 C57.62912976 17.17449319 62.97050098 16.63982599 67.90234375 18.87109375 C82.2203049 27.90242309 88.56014238 43.06540556 93.75 58.5 C94.21297485 59.87671875 94.21297485 59.87671875 94.68530273 61.28125 C99.89876998 77.45973577 103.39328633 93.8737546 105.75 110.6875 C105.87634827 111.57523102 106.00269653 112.46296204 106.13287354 113.37759399 C111.89179243 154.11901715 112.56196315 195.84773272 108.5625 236.8125 C108.46598145 237.87098145 108.36946289 238.92946289 108.27001953 240.02001953 C105.92627193 265.26245064 101.85013157 290.79583908 93.5625 314.8125 C93.32563477 315.52776855 93.08876953 316.24303711 92.84472656 316.97998047 C88.55857209 329.87078114 82.30606406 345.61686416 70.40625 353.18359375 C65.63220409 355.5460925 60.84951636 357.12156931 55.5625 355.8125 C43.73085459 350.3785554 38.56000155 339.340463 33.26171875 328.19140625 C31.79643417 324.83707685 31.79643417 324.83707685 29.5625 322.8125 C29.36205078 323.3701001 29.16160156 323.9277002 28.95507812 324.50219727 C14.20834357 365.19365444 14.20834357 365.19365444 -1.4375 372.8125 C-7.73500122 374.91166707 -12.39609768 373.73024979 -18.2265625 371.078125 C-37.90236464 359.81494498 -45.18744288 331.0885931 -50.84765625 310.8671875 C-66.47169926 252.64700775 -68.42478098 187.51236222 -62.4375 127.8125 C-62.31391113 126.57870605 -62.19032227 125.34491211 -62.06298828 124.07373047 C-59.1911769 96.78630089 -54.5759861 68.76949285 -45.4375 42.8125 C-45.20208496 42.1431543 -44.96666992 41.47380859 -44.72412109 40.78417969 C-39.90188762 27.38504707 -33.92641008 13.72344973 -23.4375 3.8125 C-22.90898437 3.26722656 -22.38046875 2.72195312 -21.8359375 2.16015625 C-15.88916306 -3.12749294 -7.14145518 -2.46704815 0 0 Z " fill="#FD6A24" transform="translate(255.4375,65.1875)"/>
<path d="M0 0 C16.29928771 11.52876448 23.66786147 30.3426326 29.5625 48.8125 C30.8825 47.8225 32.2025 46.8325 33.5625 45.8125 C33.2325 47.4625 32.9025 49.1125 32.5625 50.8125 C31.2425 50.8125 29.9225 50.8125 28.5625 50.8125 C28.53671875 52.12605469 28.5109375 53.43960938 28.484375 54.79296875 C28.42808171 56.5286785 28.37073465 58.2643543 28.3125 60 C28.29832031 60.86431641 28.28414063 61.72863281 28.26953125 62.61914062 C28.06612456 67.92805516 27.56695887 70.94419273 23.5625 74.8125 C24.02072468 71.34308454 24.45381683 68.13854951 25.5625 64.8125 C26.06943793 60.33454827 25.93542484 58.38285564 23.4375 54.5625 C19.28746263 50.59289904 16.33859248 49.03803555 10.625 48.3125 C5.87960255 48.58212486 2.76670277 50.3784599 -0.4375 53.8125 C-20.23644942 79.79427924 -25.09338084 115.78708669 -27.20385742 147.48266602 C-27.4375 149.8125 -27.4375 149.8125 -27.94302368 152.09823608 C-28.46797884 154.97980347 -28.57154011 157.64242362 -28.58276367 160.57055664 C-28.58914352 161.70687027 -28.59552338 162.8431839 -28.60209656 164.01393127 C-28.60320938 165.23781052 -28.6043222 166.46168976 -28.60546875 167.72265625 C-28.60879715 168.99991074 -28.61212555 170.27716522 -28.61555481 171.59312439 C-28.62153907 174.30403484 -28.62339604 177.01491349 -28.62280273 179.72583008 C-28.62272227 182.46515624 -28.62953366 185.20431234 -28.64331055 187.94360352 C-28.72127364 203.68843557 -28.53321695 219.19322966 -26.4375 234.8125 C-26.20244751 236.64059204 -26.20244751 236.64059204 -25.96264648 238.50561523 C-22.57546547 263.45221252 -18.44854112 292.9003125 -3.4375 313.8125 C-2.98503906 314.45058594 -2.53257812 315.08867187 -2.06640625 315.74609375 C0.87781185 319.57082568 3.78054057 322.39443189 8.66796875 323.12890625 C14.13883318 323.41298799 17.30212752 322.4784019 21.5625 318.8125 C24.03068318 316.21090151 25.40368438 314.66613396 26.0625 311.125 C26.2275 310.361875 26.3925 309.59875 26.5625 308.8125 C28.625 307.5 28.625 307.5 30.5625 306.8125 C30.8125 312.4375 30.8125 312.4375 28.5625 315.8125 C29.2225 315.8125 29.8825 315.8125 30.5625 315.8125 C30.5625 317.1325 30.5625 318.4525 30.5625 319.8125 C31.5525 320.4725 32.5425 321.1325 33.5625 321.8125 C33.5625 322.8025 33.5625 323.7925 33.5625 324.8125 C32.9025 324.8125 32.2425 324.8125 31.5625 324.8125 C30.9025 324.1525 30.2425 323.4925 29.5625 322.8125 C29.36205078 323.3701001 29.16160156 323.9277002 28.95507812 324.50219727 C14.20834357 365.19365444 14.20834357 365.19365444 -1.4375 372.8125 C-7.73500122 374.91166707 -12.39609768 373.73024979 -18.2265625 371.078125 C-37.90236464 359.81494498 -45.18744288 331.0885931 -50.84765625 310.8671875 C-66.47169926 252.64700775 -68.42478098 187.51236222 -62.4375 127.8125 C-62.31391113 126.57870605 -62.19032227 125.34491211 -62.06298828 124.07373047 C-59.1911769 96.78630089 -54.5759861 68.76949285 -45.4375 42.8125 C-45.20208496 42.1431543 -44.96666992 41.47380859 -44.72412109 40.78417969 C-39.90188762 27.38504707 -33.92641008 13.72344973 -23.4375 3.8125 C-22.90898437 3.26722656 -22.38046875 2.72195312 -21.8359375 2.16015625 C-15.88916306 -3.12749294 -7.14145518 -2.46704815 0 0 Z " fill="#FD6A24" transform="translate(255.4375,65.1875)"/>
<path d="M0 0 C0 0.66 0 1.32 0 2 C-1.43359375 3.375 -1.43359375 3.375 -3.4375 5 C-17.49648381 17.05761705 -26.80525266 32.61050531 -35 49 C-35.46019531 49.92039063 -35.92039062 50.84078125 -36.39453125 51.7890625 C-39.9335499 59.22661916 -42.58307624 66.97379075 -45.22949219 74.76171875 C-45.97700579 76.93320312 -46.75416754 79.0917882 -47.5390625 81.25 C-53.07982086 96.75775472 -56.0776689 112.84496952 -58.75 129.0625 C-58.86561279 129.75013428 -58.98122559 130.43776855 -59.1003418 131.14624023 C-63.82281872 161.64332926 -61.86896738 194.13730144 -56.0625 224.3125 C-55.93534607 224.9733963 -55.80819214 225.6342926 -55.67718506 226.31521606 C-54.17600874 234.02044445 -52.41910041 241.53219341 -50 249 C-49.47019531 250.74216797 -49.47019531 250.74216797 -48.9296875 252.51953125 C-39.87654584 280.78545131 -26.57107707 308.66640704 -5.65673828 330.06787109 C-2 333.81796245 -2 333.81796245 -2 336 C-7.75859457 334.42692051 -12.50070794 331.56759332 -17.5625 328.5 C-18.44856934 327.96463623 -19.33463867 327.42927246 -20.24755859 326.87768555 C-30.5814441 320.54040819 -39.8173446 313.30480465 -48.734375 305.078125 C-50.8017788 303.18181669 -52.91750093 301.36970394 -55.0625 299.5625 C-74.91207179 282.17920767 -87.3830559 258.72574048 -98 235 C-98.43054688 234.05898438 -98.86109375 233.11796875 -99.3046875 232.1484375 C-116.42352914 192.46988207 -113.85387683 141.70874118 -98.375 102.125 C-91.66690468 85.69940517 -83.54581902 70.51381831 -72.37402344 56.70019531 C-71.11815022 55.14619725 -69.88959946 53.57022004 -68.6640625 51.9921875 C-59.99216664 41.00361188 -50.03159658 31.58888591 -39 23 C-38.15953125 22.30777344 -37.3190625 21.61554688 -36.453125 20.90234375 C-10.20190563 0 -10.20190563 0 0 0 Z " fill="#FC6926" transform="translate(202,82)"/>
<path d="M0 0 C5.32116118 1.95695597 8.95164871 5.28891165 12 10 C12.43885306 15.31141277 11.3907857 19.73805703 9.8125 24.75 C4.891538 41.36734156 2.0924865 58.8087874 0 76 C-0.1252002 76.9605127 -0.1252002 76.9605127 -0.25292969 77.94042969 C-1.94092267 90.93858501 -2.71830965 103.89892754 -3 117 C-3.01673767 117.73970032 -3.03347534 118.47940063 -3.05072021 119.24151611 C-4.03592575 164.36438941 -3.00526019 211.21160852 10.52709961 254.65600586 C11.73360342 258.56204324 12.48991865 261.91544565 12 266 C10.609375 268.265625 10.609375 268.265625 8.75 270.25 C8.14671875 270.91515625 7.5434375 271.5803125 6.921875 272.265625 C3.01375227 275.79246746 -0.46874815 276.59997964 -5.640625 276.4140625 C-12.05651413 275.2880952 -15.76742981 270.63520036 -19.40722656 265.53686523 C-33.11010518 245.08389996 -37.24371135 218.83237508 -41 195 C-41.11472656 194.28908203 -41.22945312 193.57816406 -41.34765625 192.84570312 C-43.46393139 179.65246887 -44.15541868 166.49003484 -44.16796875 153.140625 C-44.17129715 151.87136169 -44.17462555 150.60209839 -44.17805481 149.29437256 C-44.18308 146.62882941 -44.18590173 143.96338852 -44.18530273 141.29785156 C-44.18522156 138.60637684 -44.19216211 135.91507263 -44.20581055 133.22363281 C-44.27587583 118.3261156 -44.08122311 103.75975546 -42 89 C-41.71311888 86.45986322 -41.45198079 83.91761816 -41.1875 81.375 C-37.79212249 54.89631959 -32.32299175 19.98388642 -11.0625 1.4375 C-7.2529912 -0.35063678 -4.09113918 -0.7769993 0 0 Z " fill="#171615" transform="translate(270,113)"/>
<path d="M0 0 C10.30444967 6.28369382 13.5105634 17.45010799 16.25 28.5625 C16.63285156 30.02719727 16.63285156 30.02719727 17.0234375 31.52148438 C18.50739897 37.35970121 19.40170385 43.01105552 20 49 C20.33 49.66 20.66 50.32 21 51 C23.39255422 63.68186901 23.30859352 76.46791118 23.26074219 89.32519531 C23.25006273 92.7300007 23.26067077 96.13427349 23.2734375 99.5390625 C23.2932276 127.85972181 23.29381265 165.80364241 3 188 C0.00439927 190.0594755 -2.39498494 190.52756318 -6 190 C-14.16322629 185.18578962 -17.9739903 175.57373551 -20.6875 166.9375 C-20.98366211 166.01485352 -21.27982422 165.09220703 -21.58496094 164.14160156 C-23.84620182 156.90111326 -25.60542851 149.75370783 -26.67626953 142.23144531 C-26.90265702 140.67097649 -27.14734344 139.1131024 -27.40576172 137.55761719 C-33.73536072 99.23826756 -36.27686492 40.7163361 -14 7 C-10.22006255 2.21635035 -6.30723293 -1.07103955 0 0 Z " fill="#181615" transform="translate(335,157)"/>
<path d="M0 0 C4.18762411 0.6320942 5.41536202 1.84694731 7.9296875 5.14453125 C20.11128017 25.89453233 17.93067832 61.0530582 12.3125 83.5 C12.07273437 84.48871094 11.83296875 85.47742188 11.5859375 86.49609375 C10.19368475 91.64436905 8.5104584 96.20559872 5.3125 100.5 C2.0625 101.4375 2.0625 101.4375 -0.6875 101.5 C-12.75224468 87.82662269 -13.11051773 68.96092339 -13.0625 51.5625 C-13.06228851 50.84988007 -13.06207703 50.13726013 -13.06185913 49.40304565 C-13.03423056 40.01312748 -12.58329941 30.8404477 -11 21.5625 C-10.85159668 20.67763916 -10.70319336 19.79277832 -10.55029297 18.88110352 C-9.34192736 12.75245743 -6.97139702 1.2970041 0 0 Z " fill="#FB6A28" transform="translate(392.6875,198.5)"/>
<path d="M0 0 C0.33 0 0.66 0 1 0 C1.95964881 9.02703819 2.15570715 17.96947768 2.13037109 27.03491211 C2.12503246 29.29873425 2.13033835 31.56235588 2.13671875 33.82617188 C2.13832919 42.28959655 1.82735859 50.62037853 1.01904297 59.04760742 C0.72316964 62.19148101 0.72316964 62.19148101 3 65 C3.1953125 67.69921875 3.1953125 67.69921875 3.125 70.6875 C3.10695313 71.68136719 3.08890625 72.67523438 3.0703125 73.69921875 C3.04710937 74.45847656 3.02390625 75.21773438 3 76 C3.66 76 4.32 76 5 76 C5 72.7 5 69.4 5 66 C5.33 66 5.66 66 6 66 C6.17654874 74.33702376 5.70065711 82.41431655 4.6875 90.6875 C4.55432373 91.81075684 4.42114746 92.93401367 4.28393555 94.09130859 C3.18067176 103.12553306 1.75354881 112.07058122 0 121 C-0.33 121 -0.66 121 -1 121 C-1.66 116.38 -2.32 111.76 -3 107 C-5.95590371 106.6707477 -5.95590371 106.6707477 -7.5 108.3125 C-7.995 108.869375 -8.49 109.42625 -9 110 C-10.5625 111.6875 -10.5625 111.6875 -12 113 C-12.66 113 -13.32 113 -14 113 C-13.56661254 111.64451156 -13.12802005 110.29068724 -12.6875 108.9375 C-12.32205078 107.80634766 -12.32205078 107.80634766 -11.94921875 106.65234375 C-11 104 -11 104 -9.5546875 100.921875 C-7.38773339 95.92043445 -6.48037767 90.63874275 -5.4375 85.3125 C-5.12522461 83.82266602 -5.12522461 83.82266602 -4.80664062 82.30273438 C-1.01383417 63.26736405 -0.63230175 44.09587515 -0.375 24.75 C-0.33670196 22.33592525 -0.297644 19.92186243 -0.2578125 17.5078125 C-0.16314176 11.67198307 -0.07774596 5.83607821 0 0 Z " fill="#F96A26" transform="translate(358,224)"/>
<path d="M0 0 C0.33 0 0.66 0 1 0 C1.31792885 2.81197268 1.62931092 5.62445496 1.9375 8.4375 C2.02451172 9.20126953 2.11152344 9.96503906 2.20117188 10.75195312 C3.84937184 25.95201947 4.16238441 41.10996493 4.13037109 56.38647461 C4.12496467 59.45756873 4.13037604 62.5285194 4.13671875 65.59960938 C4.13605856 67.58593782 4.13477864 69.57226617 4.1328125 71.55859375 C4.13483673 72.45984482 4.13686096 73.36109589 4.13894653 74.28965759 C4.11724787 80.24635584 3.69565524 86.08455049 3 92 C2.67 92 2.34 92 2 92 C2 73.85 2 55.7 2 37 C1.34 37 0.68 37 0 37 C-0.99 33.535 -0.99 33.535 -2 30 C-2.66 30 -3.32 30 -4 30 C-4.33 30.99 -4.66 31.98 -5 33 C-5.13277344 31.86820313 -5.26554687 30.73640625 -5.40234375 29.5703125 C-5.5805342 28.08851821 -5.75893029 26.60674864 -5.9375 25.125 C-6.02451172 24.37863281 -6.11152344 23.63226563 -6.20117188 22.86328125 C-6.63326063 18.8046769 -6.63326063 18.8046769 -8 15 C-8.22858114 12.9625237 -8.41024278 10.91959697 -8.5625 8.875 C-8.64628906 7.77929688 -8.73007812 6.68359375 -8.81640625 5.5546875 C-8.87699219 4.71164063 -8.93757813 3.86859375 -9 3 C-6.60397626 5.39602374 -6.51168523 6.65161648 -5.9375 9.9375 C-5.43610176 12.75113142 -4.9062983 15.28110509 -4 18 C-3.34 18 -2.68 18 -2 18 C-1.34 12.06 -0.68 6.12 0 0 Z " fill="#EA662A" transform="translate(362,191)"/>
<path d="M0 0 C0.33 0 0.66 0 1 0 C1.95964881 9.02703819 2.15570715 17.96947768 2.13037109 27.03491211 C2.12503246 29.29873425 2.13033835 31.56235588 2.13671875 33.82617188 C2.13832919 42.28959655 1.82735859 50.62037853 1.01904297 59.04760742 C0.72316964 62.19148101 0.72316964 62.19148101 3 65 C3.265625 67.92578125 3.265625 67.92578125 3.25 71.3125 C3.25515625 72.42238281 3.2603125 73.53226562 3.265625 74.67578125 C2.98745466 78.1570012 2.4786565 80.83211883 1 84 C-0.98 84.495 -0.98 84.495 -3 85 C-3.66 88.63 -4.32 92.26 -5 96 C-5.66 96 -6.32 96 -7 96 C-6.5278013 90.61693481 -5.704524 85.47080293 -4.5625 80.1875 C-0.85270204 61.88290369 -0.62258876 43.36558008 -0.375 24.75 C-0.33670196 22.33592525 -0.297644 19.92186243 -0.2578125 17.5078125 C-0.16314176 11.67198307 -0.07774596 5.83607821 0 0 Z " fill="#EC662B" transform="translate(358,224)"/>
<path d="M0 0 C0.66 0 1.32 0 2 0 C0.51543653 5.2355605 -2.83329324 8.25515519 -6.625 11.9375 C-7.58321655 12.87662231 -7.58321655 12.87662231 -8.56079102 13.8347168 C-12.80834282 17.95154146 -16.99388442 21.81984979 -22 25 C-22.52674316 25.33837891 -23.05348633 25.67675781 -23.59619141 26.02539062 C-44.71767683 39.49083938 -44.71767683 39.49083938 -52.33984375 38.6171875 C-53.21769531 38.41351563 -54.09554688 38.20984375 -55 38 C-52.37106006 36.24737337 -50.00142735 35.18867862 -47.06298828 34.09790039 C-30.13075132 27.78190724 -13.38268061 16.63237229 -2 2.4375 C-1.34 1.633125 -0.68 0.82875 0 0 Z " fill="#0C0C0C" transform="translate(470,457)"/>
<path d="M0 0 C0.99 0 1.98 0 3 0 C0.03961703 19.17621211 -9.02783784 36.8961551 -21 52 C-21.66 51.67 -22.32 51.34 -23 51 C-21.54802729 47.89631231 -19.79588708 45.03111876 -17.97949219 42.12915039 C-9.72424139 28.83612415 -4.32703491 14.99507027 0 0 Z " fill="#0A0A0A" transform="translate(495,405)"/>
<path d="M0 0 C0.495 1.485 0.495 1.485 1 3 C-0.09957031 3.61746094 -1.19914062 4.23492188 -2.33203125 4.87109375 C-16.42277777 12.89328273 -27.75035285 22.3969608 -39 34 C-39.66 33.01 -40.32 32.02 -41 31 C-38.67537243 28.61634868 -36.33873749 26.24480231 -34 23.875 C-33.35160156 23.20984375 -32.70320313 22.5446875 -32.03515625 21.859375 C-25.41868123 15.17739033 -18.26958825 9.9547013 -10.1875 5.1875 C-9.20620117 4.59678711 -9.20620117 4.59678711 -8.20507812 3.99414062 C-5.49522113 2.38040556 -3.00145901 1.00048634 0 0 Z " fill="#0D0D0D" transform="translate(70,8)"/>
<path d="M0 0 C0.33 0 0.66 0 1 0 C0.85873374 3.06277267 0.71215604 6.12513542 0.5625 9.1875 C0.50352539 10.48397461 0.50352539 10.48397461 0.44335938 11.80664062 C0.40146484 12.64775391 0.35957031 13.48886719 0.31640625 14.35546875 C0.27974854 15.12528076 0.24309082 15.89509277 0.20532227 16.68823242 C0 19 0 19 -0.48413086 21.17041016 C-1.25519189 25.39975105 -1.38863591 29.62747686 -1.5703125 33.91796875 C-1.6131839 34.91765182 -1.6560553 35.9173349 -1.70022583 36.9473114 C-2.01427811 45.25520938 -2.0447286 53.5504144 -1.9921875 61.86328125 C-1.9843927 63.1261496 -1.9765979 64.38901794 -1.96856689 65.69015503 C-1.9317907 70.90431637 -1.8898738 76.11834225 -1.82861328 81.33227539 C-1.78660497 85.1968038 -1.7629769 89.06108886 -1.7421875 92.92578125 C-1.72356659 94.11198563 -1.70494568 95.29819 -1.6857605 96.52033997 C-1.68230621 97.60715561 -1.67885193 98.69397125 -1.67529297 99.8137207 C-1.66561493 100.77027054 -1.65593689 101.72682037 -1.64596558 102.71235657 C-1.82121262 103.84474007 -1.82121262 103.84474007 -2 105 C-3.485 105.99 -3.485 105.99 -5 107 C-4.89129134 98.59236461 -4.7784453 90.18479824 -4.66066074 81.77728558 C-4.60606078 77.87115921 -4.55275956 73.96502511 -4.50268555 70.05883789 C-4.11709081 40.11835184 -4.11709081 40.11835184 -3.52734375 28.58203125 C-3.49024796 27.84240646 -3.45315216 27.10278168 -3.41493225 26.34074402 C-3.22515042 23.11087906 -2.87754644 20.11363203 -2 17 C-1.80325972 14.83585687 -1.6392679 12.66860016 -1.5 10.5 C-1.26746518 6.87910068 -1.0259536 3.48824225 0 0 Z " fill="#32180D" transform="translate(269,183)"/>
<path d="M0 0 C0.33 0 0.66 0 1 0 C1.22786458 2.05078125 1.45572917 4.1015625 1.68359375 6.15234375 C1.81886614 8.01140229 1.81886614 8.01140229 3 9 C2.94921875 10.93359375 2.94921875 10.93359375 2.6875 13.4375 C2.56955078 14.64212891 2.56955078 14.64212891 2.44921875 15.87109375 C2.0698166 18.51371223 1.54896835 21.03465267 0.96875 23.63671875 C-0.17464642 29.24714405 -0.26423104 34.66592495 -0.1875 40.375 C-0.18032959 41.38071045 -0.17315918 42.3864209 -0.16577148 43.42260742 C-0.61940867 55.02237449 -0.61940867 55.02237449 2 66 C2.07194869 68.88370333 2.09291708 71.74239664 2.0625 74.625 C2.05798828 75.42679687 2.05347656 76.22859375 2.04882812 77.0546875 C2.03703168 79.03649006 2.01909605 81.01825433 2 83 C1.67 83 1.34 83 1 83 C0.68557272 80.39605372 0.37343589 77.79186372 0.0625 75.1875 C-0.02451172 74.46884766 -0.11152344 73.75019531 -0.20117188 73.00976562 C-0.478954 70.67433813 -0.74220141 68.33771666 -1 66 C-1.09337646 65.17741699 -1.18675293 64.35483398 -1.28295898 63.50732422 C-2.10123466 55.59217961 -2.19600854 47.70170734 -2.1875 39.75 C-2.1882251 39.05688721 -2.1889502 38.36377441 -2.18969727 37.6496582 C-2.18824581 25.020507 -1.40613952 12.55481719 0 0 Z " fill="#3D1E10" transform="translate(142,212)"/>
<path d="M0 0 C0.33 0 0.66 0 1 0 C2.20318167 5.56762715 2.60009716 11.14378371 3.0625 16.8125 C3.15337891 17.86759766 3.24425781 18.92269531 3.33789062 20.00976562 C3.80908073 25.69593199 4.10323148 31.29474018 4 37 C4.99 37 5.98 37 7 37 C7.03738281 38.16015625 7.07476562 39.3203125 7.11328125 40.515625 C7.44123576 48.80336432 7.96706487 56.52237298 10.37890625 64.51953125 C11.02675439 67.10684929 11.10967221 69.34402514 11 72 C9.05590102 69.08385153 8.49695361 67.44617095 7.78125 64.09765625 C7.46764526 62.64830688 7.46764526 62.64830688 7.14770508 61.16967773 C6.9339624 60.14430908 6.72021973 59.11894043 6.5 58.0625 C6.27787842 57.01070557 6.05575684 55.95891113 5.8269043 54.87524414 C5.2081847 51.91873187 4.60119012 48.96011995 4 46 C3.76925781 44.87335938 3.53851563 43.74671875 3.30078125 42.5859375 C0.74398486 28.7178739 -0.53543144 14.09969452 0 0 Z " fill="#DD622D" transform="translate(268,290)"/>
<path d="M0 0 C0 0.66 0 1.32 0 2 C-1.43359375 3.375 -1.43359375 3.375 -3.4375 5 C-7.72827803 8.6330117 -11.4095176 12.64532229 -15.1171875 16.86328125 C-16.3674817 18.28218359 -17.66274172 19.66274172 -19 21 C-19 18.33333333 -19 15.66666667 -19 13 C-19.33 12.01 -19.66 11.02 -20 10 C-17.04550087 8.3264663 -14.0857982 6.66236015 -11.125 5 C-10.28324219 4.52304688 -9.44148437 4.04609375 -8.57421875 3.5546875 C-7.76855469 3.10351562 -6.96289062 2.65234375 -6.1328125 2.1875 C-5.38918457 1.76855469 -4.64555664 1.34960938 -3.87939453 0.91796875 C-2 0 -2 0 0 0 Z " fill="#F06729" transform="translate(202,82)"/>
<path d="M0 0 C0.66 0 1.32 0 2 0 C2.12117187 1.31355469 2.24234375 2.62710937 2.3671875 3.98046875 C2.53606789 5.71618387 2.70536039 7.45185892 2.875 9.1875 C2.95363281 10.05181641 3.03226563 10.91613281 3.11328125 11.80664062 C3.71881503 18.12193371 3.71881503 18.12193371 6 24 C6.66 24.33 7.32 24.66 8 25 C10.25321274 28.81312925 11.39213671 31.55578397 11 36 C10.01 36.495 10.01 36.495 9 37 C8.34 35.68 7.68 34.36 7 33 C6.34 33.99 5.68 34.98 5 36 C0.4308534 11.22373113 0.4308534 11.22373113 0 0 Z " fill="#2B180F" transform="translate(228,295)"/>
<path d="M0 0 C1.88831932 2.83247898 2.41021285 4.19795533 3.03515625 7.421875 C3.28942383 8.71351563 3.28942383 8.71351563 3.54882812 10.03125 C3.71833984 10.9284375 3.88785156 11.825625 4.0625 12.75 C4.23587891 13.63171875 4.40925781 14.5134375 4.58789062 15.421875 C5.52896393 20.26786165 6.35152539 25.10635652 7 30 C6.01 30 5.02 30 4 30 C3.34 28.02 2.68 26.04 2 24 C1.01 24 0.02 24 -1 24 C-1 21.36 -1 18.72 -1 16 C-0.01 15.67 0.98 15.34 2 15 C1.67 14.01 1.34 13.02 1 12 C-0.1865126 7.91405167 -0.14865179 4.23657606 0 0 Z " fill="#2D1A0E" transform="translate(272,336)"/>
<path d="M0 0 C0.33 0 0.66 0 1 0 C1.0154612 0.97932747 1.0154612 0.97932747 1.03123474 1.97843933 C1.13944039 8.77552012 1.25402698 15.57247211 1.37231445 22.36938477 C1.41561818 24.90581568 1.4572965 27.44227488 1.49731445 29.97875977 C1.55512727 33.62524949 1.61879038 37.27159739 1.68359375 40.91796875 C1.70030624 42.05147263 1.71701874 43.1849765 1.73423767 44.35282898 C1.75418289 45.41355118 1.77412811 46.47427338 1.79467773 47.56713867 C1.81022202 48.49757492 1.8257663 49.42801117 1.84178162 50.38664246 C1.94066163 53.01172725 1.94066163 53.01172725 2.520401 55.59028625 C3.2350216 59.18085061 2.84406037 62.69105108 2.5625 66.3125 C2.48418945 67.42334961 2.48418945 67.42334961 2.40429688 68.55664062 C2.27549848 70.37152709 2.13856738 72.18583325 2 74 C1.67 74 1.34 74 1 74 C0.19666219 64.47483081 -0.13744099 55.06740582 -0.09765625 45.5078125 C-0.0962413 44.19585907 -0.09482635 42.88390564 -0.09336853 41.53219604 C-0.08960679 38.09643538 -0.07983328 34.66071909 -0.06866455 31.22497559 C-0.05831148 27.69816691 -0.05384159 24.17135084 -0.04882812 20.64453125 C-0.03820317 13.76300296 -0.02120626 6.88150363 0 0 Z " fill="#592913" transform="translate(226,220)"/>
<path d="M0 0 C1.32 0.66 2.64 1.32 4 2 C3.195625 2.969375 2.39125 3.93875 1.5625 4.9375 C-4.41609556 12.85664208 -8.58544556 22.14633854 -13 31 C-12.56706782 27.39223179 -12.0461319 24.13583282 -10.875 20.6875 C-9.67396005 18.06695923 -9.67396005 18.06695923 -11 16 C-9.1875 13.5 -9.1875 13.5 -7 11 C-6.01 11 -5.02 11 -4 11 C-4.33 9.35 -4.66 7.7 -5 6 C-4.01 5.67 -3.02 5.34 -2 5 C-0.78130071 2.49552484 -0.78130071 2.49552484 0 0 Z " fill="#2C1811" transform="translate(226,70)"/>
<path d="M0 0 C4.41732523 3.25746888 8.74678245 6.59276989 13 10.0625 C17.15959838 13.41722253 21.4051219 16.27710927 26 19 C25.01 19.66 24.02 20.32 23 21 C14.69839565 15.81330828 6.59709655 10.31134913 0 3 C0 2.01 0 1.02 0 0 Z " fill="#0B0B0B" transform="translate(37,466)"/>
<path d="M0 0 C1.77706209 2.66559313 2.87548273 5.0280615 4 8 C5.32 7.01 6.64 6.02 8 5 C7.67 6.65 7.34 8.3 7 10 C5.68 10 4.36 10 3 10 C2.97421875 11.31355469 2.9484375 12.62710938 2.921875 13.98046875 C2.86558171 15.7161785 2.80823465 17.4518543 2.75 19.1875 C2.73582031 20.05181641 2.72164063 20.91613281 2.70703125 21.80664062 C2.50362456 27.11555516 2.00445887 30.13169273 -2 34 C-1.54177532 30.53058454 -1.10868317 27.32604951 0 24 C0.53935652 18.28282089 -0.47831754 15.51215565 -4 11 C-1.525 11.495 -1.525 11.495 1 12 C0.67 8.04 0.34 4.08 0 0 Z " fill="#E4642E" transform="translate(281,106)"/>
<path d="M0 0 C0.33 0 0.66 0 1 0 C1.27054639 10.25070224 0.90294155 20.43278606 0.25335693 30.66351318 C0.12651815 32.66356111 0.00681908 34.66405766 -0.11279297 36.66455078 C-0.19674316 37.91349121 -0.28069336 39.16243164 -0.3671875 40.44921875 C-0.44050293 41.56643311 -0.51381836 42.68364746 -0.58935547 43.8347168 C-1.01277813 47.09849491 -1.85827411 49.92047447 -3 53 C-3.33 53 -3.66 53 -4 53 C-3.85739034 50.49977963 -3.71098536 47.9998729 -3.5625 45.5 C-3.52318359 44.80390625 -3.48386719 44.1078125 -3.44335938 43.390625 C-3.20142424 39.37077967 -2.79661521 35.41816925 -2.26977539 31.42382812 C-1.62548531 25.63512958 -1.32164688 19.81057724 -0.9375 14 C-0.8459119 12.63930885 -0.75411672 11.27863162 -0.66210938 9.91796875 C-0.43937421 6.61211002 -0.21873154 3.30612564 0 0 Z " fill="#582712" transform="translate(365,273)"/>
<path d="M0 0 C2.99852201 0.32563135 3.99584585 0.99577032 6.1484375 3.1875 C18.86914277 19.25575929 18.86914277 19.25575929 20 25 C19.01 25 18.02 25 17 25 C15.46626856 22.90057275 14.1338021 20.85289312 12.8125 18.625 C9.3659434 13.01460898 5.66749751 7.85219488 1.43359375 2.79296875 C0 1 0 1 0 0 Z " fill="#0A0A0A" transform="translate(465,36)"/>
<path d="M0 0 C1.16406323 1.16406323 2.32754865 2.32870939 3.48828125 3.49609375 C4.53794602 4.5403339 5.59871848 5.57347976 6.66796875 6.59765625 C8.14814809 8.02861348 9.57767678 9.51152221 11 11 C11 11.66 11 12.32 11 13 C5.82064939 11.53171057 1.65626588 9.18508737 -2.875 6.375 C-3.56335938 5.95476562 -4.25171875 5.53453125 -4.9609375 5.1015625 C-6.64391658 4.07307528 -8.32242532 3.037279 -10 2 C-8.68 1.67 -7.36 1.34 -6 1 C-6 1.66 -6 2.32 -6 3 C-5.01 3 -4.02 3 -3 3 C-2.67 2.34 -2.34 1.68 -2 1 C-1.34 1.33 -0.68 1.66 0 2 C0 1.34 0 0.68 0 0 Z " fill="#E1642D" transform="translate(189,405)"/>
<path d="M0 0 C3.1629277 3.87312211 6.10570788 7.86356458 9 11.9375 C9.42539062 12.53240234 9.85078125 13.12730469 10.2890625 13.74023438 C12.93135097 17.44835394 15.49310587 21.19903784 18 25 C15.02491458 24.67018284 14.00427547 24.00428324 11.8515625 21.84765625 C1.5676535 8.98374903 1.5676535 8.98374903 -1 3 C-0.67 2.01 -0.34 1.02 0 0 Z " fill="#0A0A0A" transform="translate(17,439)"/>
<path d="M0 0 C0.33 0 0.66 0 1 0 C1.19588601 3.6454342 1.38030536 7.2913579 1.5625 10.9375 C1.61857422 11.97841797 1.67464844 13.01933594 1.73242188 14.09179688 C1.78076172 15.08115234 1.82910156 16.07050781 1.87890625 17.08984375 C1.9260376 18.00628662 1.97316895 18.92272949 2.02172852 19.86694336 C2 22 2 22 1 23 C0.76472227 25.34987262 0.58613583 27.70556039 0.4375 30.0625 C0.35371094 31.35285156 0.26992187 32.64320313 0.18359375 33.97265625 C0.12300781 34.97167969 0.06242188 35.97070312 0 37 C-0.66 37 -1.32 37 -2 37 C-2.3172599 24.5387362 -1.35798878 12.38081265 0 0 Z " fill="#D75D2E" transform="translate(194,183)"/>
<path d="M0 0 C2.54344286 2.27301934 3.87616437 4.45086481 5.25 7.5625 C5.60578125 8.34753906 5.9615625 9.13257813 6.328125 9.94140625 C7 12 7 12 6 14 C4 12.25 4 12.25 2 10 C2 8.68 2 7.36 2 6 C1.34 6 0.68 6 0 6 C-0.061875 7.0725 -0.12375 8.145 -0.1875 9.25 C-1 13 -1 13 -3.5625 15.4375 C-4.7690625 16.2109375 -4.7690625 16.2109375 -6 17 C-4.33846988 11.14340094 -2.52958084 5.5409866 0 0 Z " fill="#371D0E" transform="translate(285,387)"/>
<path d="M0 0 C0.33 0 0.66 0 1 0 C1.25963502 4.67343036 0.40969977 7.23787529 -2.5 10.875 C-4.70618284 14.0004257 -5.60550089 17.37269116 -6.5 21.0625 C-7.12164947 23.47139171 -8.04419271 25.7060625 -9 28 C-10.125 26.37890625 -10.125 26.37890625 -11 24 C-8.9412467 15.47255027 -4.3910448 7.52966102 0 0 Z " fill="#0D0D0D" transform="translate(17,56)"/>
<path d="M0 0 C0.33 0 0.66 0 1 0 C0.85873374 3.06277267 0.71215604 6.12513542 0.5625 9.1875 C0.50352539 10.48397461 0.50352539 10.48397461 0.44335938 11.80664062 C0.23530263 15.98377994 -0.1374206 19.90274783 -1 24 C-1.21881019 26.6068127 -1.41012853 29.20220189 -1.5625 31.8125 C-1.60568359 32.50537109 -1.64886719 33.19824219 -1.69335938 33.91210938 C-1.79861453 35.60788686 -1.89972863 37.30392052 -2 39 C-2.33 39 -2.66 39 -3 39 C-3.33 31.08 -3.66 23.16 -4 15 C-3.01 14.67 -2.02 14.34 -1 14 C-1.01160156 13.32453125 -1.02320313 12.6490625 -1.03515625 11.953125 C-1.04869141 10.61507812 -1.04869141 10.61507812 -1.0625 9.25 C-1.07410156 8.36828125 -1.08570313 7.4865625 -1.09765625 6.578125 C-1.00826198 4.2181162 -0.66912821 2.25501476 0 0 Z " fill="#E8652C" transform="translate(228,196)"/>
<path d="M0 0 C0.33 0 0.66 0 1 0 C1.61916858 31.11401495 1.61916858 31.11401495 -2 46 C-2.33 46 -2.66 46 -3 46 C-3.02693575 43.87506859 -3.04636628 41.75004088 -3.0625 39.625 C-3.07410156 38.44164062 -3.08570313 37.25828125 -3.09765625 36.0390625 C-3 33 -3 33 -2 31 C-1.77552076 28.67847516 -1.60679672 26.35146625 -1.46484375 24.0234375 C-1.40037804 22.99556625 -1.40037804 22.99556625 -1.33460999 21.94692993 C-1.1981713 19.75651568 -1.06776703 17.56578911 -0.9375 15.375 C-0.84610007 13.89060051 -0.75430808 12.4062251 -0.66210938 10.921875 C-0.43685483 7.28151858 -0.21701107 3.64085818 0 0 Z " fill="#D26131" transform="translate(407,236)"/>
<path d="M0 0 C1.890625 0.24609375 1.890625 0.24609375 4 1 C5.046875 2.84765625 5.046875 2.84765625 5.75 5.0625 C5.99234375 5.79597656 6.2346875 6.52945313 6.484375 7.28515625 C6.65453125 7.85105469 6.8246875 8.41695312 7 9 C7.66 8.67 8.32 8.34 9 8 C9 16.58 9 25.16 9 34 C8.67 34 8.34 34 8 34 C7.90203125 32.92363281 7.8040625 31.84726563 7.703125 30.73828125 C6.64255367 20.05768966 5.1152717 9.61397048 0 0 Z " fill="#3B1A10" transform="translate(399,202)"/>
<path d="M0 0 C1 2 1 2 -0.109375 5.44140625 C-0.64790735 6.81839614 -1.19517962 8.19199185 -1.75 9.5625 C-2.01554687 10.26052734 -2.28109375 10.95855469 -2.5546875 11.67773438 C-3.27917656 13.4907155 -4.13265651 15.25085729 -5 17 C-5.99 17.33 -6.98 17.66 -8 18 C-8.29201904 13.03567635 -8.14707573 9.96298426 -5 6 C-4.01 5.67 -3.02 5.34 -2 5 C-2 3.68 -2 2.36 -2 1 C-1.34 0.67 -0.68 0.34 0 0 Z " fill="#F16829" transform="translate(349,376)"/>
<path d="M0 0 C2.16078773 3.24118159 3.34884727 6.28209585 4.6875 9.9375 C5.14511719 11.16339844 5.60273438 12.38929688 6.07421875 13.65234375 C6.93811367 16.77621693 7.21062031 18.07249999 6 21 C4 20 4 20 3.22216797 18.23413086 C2.86082764 17.11083374 2.86082764 17.11083374 2.4921875 15.96484375 C2.22792969 15.15595703 1.96367188 14.34707031 1.69140625 13.51367188 C1.42199219 12.66353516 1.15257812 11.81339844 0.875 10.9375 C0.59785156 10.08349609 0.32070312 9.22949219 0.03515625 8.34960938 C-0.64997648 6.23514801 -1.32801834 4.1186703 -2 2 C-1.34 1.34 -0.68 0.68 0 0 Z " fill="#0C0C0C" transform="translate(5,409)"/>
<path d="M0 0 C1.32 0.33 2.64 0.66 4 1 C3.67 1.99 3.34 2.98 3 4 C3.66 4 4.32 4 5 4 C5 4.99 5 5.98 5 7 C9.62 6.67 14.24 6.34 19 6 C16.38126358 8.61873642 14.52421947 8.94757805 10.875 9.3125 C4.86041861 8.82745311 -0.02475153 6.73436451 -4.5625 2.75 C-5.036875 2.1725 -5.51125 1.595 -6 1 C-3.69 1.66 -1.38 2.32 1 3 C0.67 2.01 0.34 1.02 0 0 Z " fill="#E06430" transform="translate(237,430)"/>
<path d="M0 0 C0.66 0 1.32 0 2 0 C2.99 2.31 3.98 4.62 5 7 C3.125 7.625 3.125 7.625 1 8 C0.34 7.34 -0.32 6.68 -1 6 C-1.33 6.66 -1.66 7.32 -2 8 C-1.34 8.33 -0.68 8.66 0 9 C-1.65 9.33 -3.3 9.66 -5 10 C-5.12375 10.804375 -5.2475 11.60875 -5.375 12.4375 C-5.58125 13.283125 -5.7875 14.12875 -6 15 C-6.99 15.495 -6.99 15.495 -8 16 C-6.2613238 9.76620972 -4.15268577 5.00451874 0 0 Z " fill="#1B1810" transform="translate(324,160)"/>
<path d="M0 0 C0.66 0.33 1.32 0.66 2 1 C1.75765625 1.66902344 1.5153125 2.33804688 1.265625 3.02734375 C-1.82547628 11.88453779 -3.96348421 20.85734401 -6 30 C-6.33 30 -6.66 30 -7 30 C-7.08112454 27.41603321 -7.14054748 24.83462432 -7.1875 22.25 C-7.21263672 21.52039063 -7.23777344 20.79078125 -7.26367188 20.0390625 C-7.32450049 15.57829703 -6.96778329 13.31021982 -4 10 C-3.21766767 8.27311258 -2.48837687 6.52126353 -1.8125 4.75 C-1.46832031 3.85796875 -1.12414062 2.9659375 -0.76953125 2.046875 C-0.51558594 1.37140625 -0.26164063 0.6959375 0 0 Z " fill="#33180C" transform="translate(209,107)"/>
<path d="M0 0 C2.57816377 1.10769138 4.64890752 2.43260501 7 4 C7 4.99 7 5.98 7 7 C6.67 6.34 6.34 5.68 6 5 C2.7 5 -0.6 5 -4 5 C-3.67 4.34 -3.34 3.68 -3 3 C-5.64 3.33 -8.28 3.66 -11 4 C-10.67 3.01 -10.34 2.02 -10 1 C-6.78424322 -0.60787839 -3.4875413 -0.48211971 0 0 Z " fill="#351B11" transform="translate(270,113)"/>
<path d="M0 0 C0.66 0.33 1.32 0.66 2 1 C1.67 1.99 1.34 2.98 1 4 C0.01 4 -0.98 4 -2 4 C-1.67 5.32 -1.34 6.64 -1 8 C-2.32 7.67 -3.64 7.34 -5 7 C-5 7.99 -5 8.98 -5 10 C-5.886875 10.2475 -6.77375 10.495 -7.6875 10.75 C-11.10427135 12.03934768 -13.2797748 13.59980129 -16 16 C-16.66 15.67 -17.32 15.34 -18 15 C-15.93821926 13.24914666 -13.87560123 11.49929619 -11.8125 9.75 C-11.23435547 9.25886719 -10.65621094 8.76773438 -10.06054688 8.26171875 C-6.74768589 5.45420944 -3.4063788 2.69431092 0 0 Z " fill="#E86332" transform="translate(169,100)"/>
<path d="M0 0 C-0.66257422 7.72422049 -1.76464626 15.34800303 -3 23 C-3.33 23 -3.66 23 -4 23 C-4.10251672 17.87416389 -4.03590199 13.05002222 -3 8 C-3.99 7.67 -4.98 7.34 -6 7 C-5.1875 4.0625 -5.1875 4.0625 -4 1 C-1 0 -1 0 0 0 Z " fill="#2A1A0D" transform="translate(199,152)"/>
<path d="M0 0 C1.65522397 2.93517449 2.29920064 5.2749358 2.5625 8.625 C2.81884544 11.93666003 2.81884544 11.93666003 4 15 C4.13415472 17.6723621 4.04318541 20.32250488 4 23 C1.8614515 20.8614515 1.57344937 19.86724686 1 17 C0.34 17 -0.32 17 -1 17 C-1.07427838 13.65747276 -1.06546953 11.1964086 0 8 C0.06665376 6.60560336 0.08538199 5.20830125 0.0625 3.8125 C0.041875 2.554375 0.02125 1.29625 0 0 Z " fill="#341C10" transform="translate(352,193)"/>
<path d="M0 0 C0 2 0 2 -1.64453125 3.65625 C-2.71767578 4.56890625 -2.71767578 4.56890625 -3.8125 5.5 C-4.87404297 6.41265625 -4.87404297 6.41265625 -5.95703125 7.34375 C-8 9 -8 9 -11 11 C-11 10.01 -11 9.02 -11 8 C-12.32 7.67 -13.64 7.34 -15 7 C-12.87767021 5.82823482 -10.75242209 4.66245215 -8.625 3.5 C-7.72007812 2.99919922 -7.72007812 2.99919922 -6.796875 2.48828125 C-2.2265625 0 -2.2265625 0 0 0 Z " fill="#E0652F" transform="translate(202,82)"/>
<path d="M0 0 C1.76227952 2.64341928 3.19871008 5.23077235 4.625 8.0625 C5.07101563 8.94035156 5.51703125 9.81820313 5.9765625 10.72265625 C7 13 7 13 7 15 C5.35 15.33 3.7 15.66 2 16 C1.25073929 12.33694766 0.7619986 9.57644848 2 6 C1.01 6 0.02 6 -1 6 C-0.67 4.02 -0.34 2.04 0 0 Z " fill="#1D1812" transform="translate(214,404)"/>
<path d="M0 0 C1.09436179 4.13509713 1.07127804 7.72331787 1 12 C0.01 12.33 -0.98 12.66 -2 13 C-3.25325285 15.78526449 -3.25325285 15.78526449 -4.1875 19.0625 C-4.53167969 20.16722656 -4.87585938 21.27195313 -5.23046875 22.41015625 C-5.48441406 23.26480469 -5.73835937 24.11945313 -6 25 C-7.22095366 21.50347185 -6.76884532 19.47527427 -5.56640625 16.015625 C-5.24736328 15.08105469 -4.92832031 14.14648438 -4.59960938 13.18359375 C-4.08624023 11.73146484 -4.08624023 11.73146484 -3.5625 10.25 C-3.22412109 9.26644531 -2.88574219 8.28289062 -2.53710938 7.26953125 C-1.7007587 4.84293634 -0.85478572 2.42014972 0 0 Z " fill="#3E1C0D" transform="translate(158,150)"/>
<path d="M0 0 C2.140625 0.38671875 2.140625 0.38671875 4 1 C2.87720538 1.98169476 1.75168527 2.96027298 0.625 3.9375 C-0.31472656 4.75541016 -0.31472656 4.75541016 -1.2734375 5.58984375 C-4.66777337 8.36214069 -7.48131016 8.3213606 -11.734375 8.30078125 C-15.00318255 7.86681887 -16.7504318 6.32213491 -19 4 C-17.35 4 -15.7 4 -14 4 C-13.67 4.66 -13.34 5.32 -13 6 C-10.03 6 -7.06 6 -4 6 C-4 5.34 -4 4.68 -4 4 C-2.25 1.8125 -2.25 1.8125 0 0 Z " fill="#251A0E" transform="translate(276,381)"/>
<path d="M0 0 C5.27112904 2.79692561 9.59398317 5.98235547 14 10 C13.67 10.66 13.34 11.32 13 12 C9.47761953 10.43632643 6.72876006 8.30504111 3.75 5.875 C2.85796875 5.15054687 1.9659375 4.42609375 1.046875 3.6796875 C0.37140625 3.12539063 -0.3040625 2.57109375 -1 2 C-0.67 1.34 -0.34 0.68 0 0 Z " fill="#0C0C0C" transform="translate(445,17)"/>
<path d="M0 0 C0 8.91 0 17.82 0 27 C-0.33 27 -0.66 27 -1 27 C-3.29612756 9.14350797 -3.29612756 9.14350797 -3 1 C-1 0 -1 0 0 0 Z " fill="#E66432" transform="translate(196,295)"/>
<path d="M0 0 C0.99 0.33 1.98 0.66 3 1 C2.88406494 1.56396484 2.76812988 2.12792969 2.64868164 2.70898438 C2.11680816 5.30535629 1.58962854 7.90266076 1.0625 10.5 C0.88009766 11.386875 0.69769531 12.27375 0.50976562 13.1875 C-0.55412335 18.44891455 -1.40785806 23.6644895 -2 29 C-2.33 29 -2.66 29 -3 29 C-3.18617094 23.22870095 -2.75756927 18.20263565 -1.51171875 12.57421875 C-0.68530679 8.416925 -0.34125802 4.22082287 0 0 Z " fill="#431D10" transform="translate(383,204)"/>
<path d="M0 0 C0.66 0.33 1.32 0.66 2 1 C1.06409496 2.1055189 0.12620142 3.20935453 -0.8125 4.3125 C-1.33457031 4.92738281 -1.85664063 5.54226562 -2.39453125 6.17578125 C-3.87243053 7.8550488 -5.40557584 9.43229803 -7 11 C-7.515625 11.556875 -8.03125 12.11375 -8.5625 12.6875 C-10 14 -10 14 -12 14 C-10.28842825 7.7242369 -5.24692437 3.49794958 0 0 Z " fill="#E66631" transform="translate(308,84)"/>
<path d="M0 0 C0.55036338 5.6412246 -0.68810205 8.55508433 -4 13 C-7.25 13.9375 -7.25 13.9375 -10 14 C-9.65066406 13.55269531 -9.30132812 13.10539062 -8.94140625 12.64453125 C-6.22444311 9.0347417 -4.77224866 6.50478386 -4 2 C-1 0 -1 0 0 0 Z " fill="#FB6B2D" transform="translate(286,372)"/>
<path d="M0 0 C0.33 0 0.66 0 1 0 C1.35352319 6.50744539 0.97363281 11.05273439 -2 17 C-2.68836513 18.99263591 -3.36281399 20.99041337 -4 23 C-5.06366506 19.75404339 -4.91053386 17.72582954 -4.00390625 14.453125 C-3.77509766 13.60878906 -3.54628906 12.76445313 -3.31054688 11.89453125 C-3.06369141 11.02183594 -2.81683594 10.14914063 -2.5625 9.25 C-2.31951172 8.36183594 -2.07652344 7.47367187 -1.82617188 6.55859375 C-1.22603684 4.36986597 -0.61706655 2.18400314 0 0 Z " fill="#DC6031" transform="translate(208,114)"/>
<path d="M0 0 C0.33 0 0.66 0 1 0 C1.33 2.97 1.66 5.94 2 9 C1.01 9.33 0.02 9.66 -1 10 C-1.33 12.31 -1.66 14.62 -2 17 C-3.65 17.66 -5.3 18.32 -7 19 C-6.66226562 18.29875 -6.32453125 17.5975 -5.9765625 16.875 C-3.34784059 11.28326785 -1.25603818 6.05182031 0 0 Z " fill="#4B1F10" transform="translate(405,279)"/>
<path d="M0 0 C0.33 0 0.66 0 1 0 C1.95261487 4.76307437 2.08333357 9.1666528 2 14 C0.68 13.67 -0.64 13.34 -2 13 C-2.19294408 8.17639811 -1.75747614 4.50353262 0 0 Z " fill="#EE662C" transform="translate(227,294)"/>
<path d="M0 0 C0.99 0.33 1.98 0.66 3 1 C-0.63 4.63 -4.26 8.26 -8 12 C-8.33 10.68 -8.66 9.36 -9 8 C-8.34 7.01 -7.68 6.02 -7 5 C-6.34 5 -5.68 5 -5 5 C-4.67 4.01 -4.34 3.02 -4 2 C-4 2.66 -4 3.32 -4 4 C-3.34 4 -2.68 4 -2 4 C-2 3.01 -2 2.02 -2 1 C-1.34 0.67 -0.68 0.34 0 0 Z " fill="#24160F" transform="translate(149,114)"/>
<path d="M0 0 C1.90591578 1.82262383 2.94063101 3.25741646 3.15380859 5.92382812 C3.07052945 8.21068372 2.90097835 10.47163812 2.6875 12.75 C2.62626953 13.54277344 2.56503906 14.33554688 2.50195312 15.15234375 C2.34920979 17.10275869 2.17654756 19.05159555 2 21 C0 19 0 19 -0.22705078 17.02880859 C-0.21657715 16.24328613 -0.20610352 15.45776367 -0.1953125 14.6484375 C-0.18886719 13.79765625 -0.18242187 12.946875 -0.17578125 12.0703125 C-0.15902344 11.18085938 -0.14226562 10.29140625 -0.125 9.375 C-0.11597656 8.4778125 -0.10695313 7.580625 -0.09765625 6.65625 C-0.0740497 4.43723414 -0.0411231 2.21874923 0 0 Z " fill="#EF682F" transform="translate(305,201)"/>
<path d="M0 0 C1.67542976 0.28604898 3.34385343 0.61781233 5 1 C3.8141763 4.37503669 2.72426311 6.64722731 0 9 C-2 6 -2 6 -1.6875 3.375 C-1 1 -1 1 0 0 Z " fill="#21180F" transform="translate(294,90)"/>
<path d="M0 0 C1.08667969 0.28746094 2.17335938 0.57492187 3.29296875 0.87109375 C4.12441406 1.09925781 4.95585938 1.32742188 5.8125 1.5625 C5.8125 2.5525 5.8125 3.5425 5.8125 4.5625 C3.68558203 4.11315113 1.56099961 3.65273527 -0.5625 3.1875 C-1.74585937 2.93226563 -2.92921875 2.67703125 -4.1484375 2.4140625 C-7.1875 1.5625 -7.1875 1.5625 -9.1875 -0.4375 C-5.46983332 -1.67672223 -3.74860463 -1.00768942 0 0 Z " fill="#0C0C0C" transform="translate(86.1875,494.4375)"/>
<path d="M0 0 C0.33 0 0.66 0 1 0 C2.33257403 12.66970387 2.33257403 12.66970387 1 18 C0.01 18 -0.98 18 -2 18 C-1.34 12.06 -0.68 6.12 0 0 Z " fill="#0D0D0D" transform="translate(498,385)"/>
<path d="M0 0 C1.61857697 3.23715394 0.01517605 5.91787756 -1.03125 9.24609375 C-2.44928592 13.27720394 -4.16488833 17.14347092 -6 21 C-6.33 21 -6.66 21 -7 21 C-7 19.35 -7 17.7 -7 16 C-6.34 16 -5.68 16 -5 16 C-5 13.36 -5 10.72 -5 8 C-4.34 8 -3.68 8 -3 8 C-2.01 5.36 -1.02 2.72 0 0 Z " fill="#391C0B" transform="translate(351,314)"/>
<path d="M0 0 C1.3805087 3.76668598 0.59568159 6.44789173 -0.4375 10.25 C-0.72496094 11.32765625 -1.01242188 12.4053125 -1.30859375 13.515625 C-1.53675781 14.33546875 -1.76492187 15.1553125 -2 16 C-2.33 16 -2.66 16 -3 16 C-3.22786458 14.01432292 -3.45572917 12.02864583 -3.68359375 10.04296875 C-3.97170735 7.80603607 -3.97170735 7.80603607 -5 5 C-3.35 3.35 -1.7 1.7 0 0 Z " fill="#29170F" transform="translate(98,197)"/>
<path d="M0 0 C0.33 0.66 0.66 1.32 1 2 C0.109375 4.42578125 0.109375 4.42578125 -1.25 7.3125 C-1.68828125 8.25738281 -2.1265625 9.20226562 -2.578125 10.17578125 C-3.94227492 12.88534277 -5.29760958 15.48760123 -7 18 C-7.66 18 -8.32 18 -9 18 C-7.65072455 13.46152802 -5.80840652 9.68067754 -3.375 5.625 C-2.74335938 4.56539063 -2.11171875 3.50578125 -1.4609375 2.4140625 C-0.73777344 1.21910156 -0.73777344 1.21910156 0 0 Z " fill="#E06332" transform="translate(225,77)"/>
<path d="M0 0 C2.99220268 1.36370299 5.29026529 2.94908083 7.75 5.125 C8.67039063 5.93324219 8.67039063 5.93324219 9.609375 6.7578125 C10.06828125 7.16773438 10.5271875 7.57765625 11 8 C8.13822943 9.43088528 6.06624227 8.59991697 3 8 C3 7.34 3 6.68 3 6 C2.34 6 1.68 6 1 6 C1.33 4.68 1.66 3.36 2 2 C1.34 2 0.68 2 0 2 C0 1.34 0 0.68 0 0 Z " fill="#311A11" transform="translate(149,384)"/>
<path d="M0 0 C-1.20842856 4.43090471 -2.51668565 6.98112756 -6 10 C-7 9 -7 9 -7.3125 6.125 C-7 3 -7 3 -5.1875 1.125 C-3 0 -3 0 0 0 Z " fill="#28170E" transform="translate(291,105)"/>
<path d="M0 0 C0.66 0.33 1.32 0.66 2 1 C2 3.64 2 6.28 2 9 C0.68 9.33 -0.64 9.66 -2 10 C-2.1953125 3.9453125 -2.1953125 3.9453125 -2 2 C-1.34 1.34 -0.68 0.68 0 0 Z " fill="#F2682A" transform="translate(225,279)"/>
<path d="M0 0 C0.33 0 0.66 0 1 0 C1.33 2.31 1.66 4.62 2 7 C1.34 7 0.68 7 0 7 C0.02320312 7.91523438 0.04640625 8.83046875 0.0703125 9.7734375 C0.08835937 10.96195313 0.10640625 12.15046875 0.125 13.375 C0.14820312 14.55835938 0.17140625 15.74171875 0.1953125 16.9609375 C0 20 0 20 -2 22 C-1.85856168 19.2705414 -1.71200471 16.54151877 -1.5625 13.8125 C-1.52318359 13.04357422 -1.48386719 12.27464844 -1.44335938 11.48242188 C-1.22492966 7.56748925 -0.91307892 3.82879312 0 0 Z " fill="#DA6129" transform="translate(95,213)"/>
<path d="M0 0 C1.07174763 3.65188082 0.76411467 6.26432828 0 10 C-0.66 10 -1.32 10 -2 10 C-2.268125 11.11375 -2.53625 12.2275 -2.8125 13.375 C-4 17 -4 17 -7 19 C-5.58632741 14.65328707 -4.02739359 10.3864361 -2.375 6.125 C-1.92898438 4.97257812 -1.48296875 3.82015625 -1.0234375 2.6328125 C-0.68570312 1.76398438 -0.34796875 0.89515625 0 0 Z " fill="#46200F" transform="translate(348,380)"/>
<path d="M0 0 C0.33 0 0.66 0 1 0 C1.54330269 6.65545792 0.77304004 10.45834744 -3 16 C-4.57159226 12.85681547 -3.04018399 10.07066611 -2.0625 6.875 C-1.86720703 6.21628906 -1.67191406 5.55757813 -1.47070312 4.87890625 C-0.98695014 3.25066448 -0.49430925 1.62506818 0 0 Z " fill="#412111" transform="translate(353,364)"/>
<path d="M0 0 C0.99 0.33 1.98 0.66 3 1 C2 4 2 4 0.25 5.1875 C-2.49785253 6.17978008 -4.0997965 6.4951567 -7 6 C-9.8125 3.5 -9.8125 3.5 -12 1 C-11.01 1.495 -11.01 1.495 -10 2 C-6.13938967 3.28687011 -3.05849717 3.13757618 1 3 C0.67 2.01 0.34 1.02 0 0 Z " fill="#421C0C" transform="translate(336,341)"/>
<path d="M0 0 C0.33 0 0.66 0 1 0 C0.36934845 5.7809725 -0.65155132 11.3443706 -2 17 C-2.33 17 -2.66 17 -3 17 C-3.33 12.71 -3.66 8.42 -4 4 C-3.67 4.66 -3.34 5.32 -3 6 C-2.34 6 -1.68 6 -1 6 C-0.67 4.02 -0.34 2.04 0 0 Z " fill="#31160C" transform="translate(278,136)"/>
<path d="M0 0 C2.64 1.65 5.28 3.3 8 5 C7.67 5.66 7.34 6.32 7 7 C5.02 7 3.04 7 1 7 C0.67 4.69 0.34 2.38 0 0 Z " fill="#24160F" transform="translate(171,401)"/>
<path d="M0 0 C2.07444392 2.07444392 3.00647758 3.73908275 4.25 6.375 C4.62640625 7.14585937 5.0028125 7.91671875 5.390625 8.7109375 C6 11 6 11 5.109375 13.2890625 C4.56023437 14.13597656 4.56023437 14.13597656 4 15 C0.83983818 10.25975727 0.65007271 5.57205182 0 0 Z " fill="#E3632A" transform="translate(160,356)"/>
<path d="M0 0 C0.99 0.99 1.98 1.98 3 3 C3.33 2.34 3.66 1.68 4 1 C4.66 1 5.32 1 6 1 C5.85851011 2.6045556 5.71164314 4.20863767 5.5625 5.8125 C5.48128906 6.70582031 5.40007812 7.59914063 5.31640625 8.51953125 C5 11 5 11 4 14 C3.32968281 12.0429132 2.66385317 10.08428887 2 8.125 C1.62875 7.03445313 1.2575 5.94390625 0.875 4.8203125 C0 2 0 2 0 0 Z " fill="#3B1C11" transform="translate(151,329)"/>
<path d="M0 0 C1.32 0.66 2.64 1.32 4 2 C-2.93 5.465 -2.93 5.465 -10 9 C-9.67 8.01 -9.34 7.02 -9 6 C-8.01 6 -7.02 6 -6 6 C-6 5.01 -6 4.02 -6 3 C-4.02 2.67 -2.04 2.34 0 2 C0 1.34 0 0.68 0 0 Z " fill="#2D180F" transform="translate(196,81)"/>
<path d="M0 0 C1.875 0.5625 1.875 0.5625 4 2 C5.375 5.4375 5.375 5.4375 6 9 C5.01 10.485 5.01 10.485 4 12 C3.3291288 10.3767313 2.66342971 8.75132422 2 7.125 C1.62875 6.22007813 1.2575 5.31515625 0.875 4.3828125 C0 2 0 2 0 0 Z " fill="#0A0A0A" transform="translate(487,69)"/>
<path d="M0 0 C2.25597827 2.25597827 2.96574192 4.04603867 4.125 7 C4.47820312 7.886875 4.83140625 8.77375 5.1953125 9.6875 C6 12 6 12 6 14 C5.01 13.67 4.02 13.34 3 13 C3 11.68 3 10.36 3 9 C2.34 9 1.68 9 1 9 C0.67 6.03 0.34 3.06 0 0 Z " fill="#DE6233" transform="translate(154,341)"/>
<path d="M0 0 C0.33 0 0.66 0 1 0 C1.13277344 0.94101562 1.26554687 1.88203125 1.40234375 2.8515625 C1.57894531 4.09679687 1.75554687 5.34203125 1.9375 6.625 C2.11152344 7.85476563 2.28554688 9.08453125 2.46484375 10.3515625 C2.93774301 13.57556184 3.45151002 16.78812176 4 20 C2.015625 19.04296875 2.015625 19.04296875 0 17 C-0.52039056 14.09705206 -0.37530743 11.24999543 -0.25 8.3125 C-0.23195313 7.51521484 -0.21390625 6.71792969 -0.1953125 5.89648438 C-0.14822247 3.93047551 -0.07647899 1.96508506 0 0 Z " fill="#431F11" transform="translate(380,266)"/>
<path d="M0 0 C0.33 0 0.66 0 1 0 C1 2.31 1 4.62 1 7 C1.66 7 2.32 7 3 7 C3 9.31 3 11.62 3 14 C2.01 14.33 1.02 14.66 0 15 C0 10.05 0 5.1 0 0 Z " fill="#23120A" transform="translate(366,263)"/>
<path d="M0 0 C3.95901486 5.93852229 4.24710558 12.08104381 4 19 C3.67 19 3.34 19 3 19 C2.81824219 17.96939453 2.81824219 17.96939453 2.6328125 16.91796875 C2.46523438 16.01691406 2.29765625 15.11585938 2.125 14.1875 C1.96257812 13.29417969 1.80015625 12.40085938 1.6328125 11.48046875 C1.08811551 8.77272154 1.08811551 8.77272154 -1 6 C-0.625 2.8125 -0.625 2.8125 0 0 Z " fill="#D75F30" transform="translate(402,208)"/>
<path d="M0 0 C1.32 0 2.64 0 4 0 C4 1.32 4 2.64 4 4 C5.32 4.33 6.64 4.66 8 5 C8.33 6.65 8.66 8.3 9 10 C7.86800647 9.0919838 6.74467637 8.17316174 5.625 7.25 C4.99851563 6.73953125 4.37203125 6.2290625 3.7265625 5.703125 C1.91687682 3.91800519 0.99882545 2.32050356 0 0 Z " fill="#DE632F" transform="translate(139,372)"/>
<path d="M0 0 C0.99 0.495 0.99 0.495 2 1 C2 1.66 2 2.32 2 3 C2.66 3 3.32 3 4 3 C4.33 5.31 4.66 7.62 5 10 C4.01 10 3.02 10 2 10 C0.68373308 6.38026598 0 3.90432869 0 0 Z " fill="#281818" transform="translate(274,356)"/>
<path d="M0 0 C0.33 0 0.66 0 1 0 C1.33 5.94 1.66 11.88 2 18 C1.34 16.68 0.68 15.36 0 14 C-0.33 13.67 -0.66 13.34 -1 13 C-0.90982004 10.80949979 -0.75333792 8.621534 -0.5625 6.4375 C-0.46066406 5.23996094 -0.35882813 4.04242188 -0.25390625 2.80859375 C-0.17011719 1.88175781 -0.08632813 0.95492188 0 0 Z " fill="#461F0F" transform="translate(268,302)"/>
<path d="M0 0 C2.36557373 2.13300328 3.62967528 3.95949399 4.75 6.9375 C5.01296875 7.60652344 5.2759375 8.27554688 5.546875 8.96484375 C6 11 6 11 5 15 C4.01 12.36 3.02 9.72 2 7 C1.34 7 0.68 7 0 7 C0 4.69 0 2.38 0 0 Z " fill="#432010" transform="translate(343,166)"/>
<path d="M0 0 C0.33 0.66 0.66 1.32 1 2 C0.67 2.99 0.34 3.98 0 5 C0.66 5.33 1.32 5.66 2 6 C0.35 6.33 -1.3 6.66 -3 7 C-3.12375 7.804375 -3.2475 8.60875 -3.375 9.4375 C-3.58125 10.283125 -3.7875 11.12875 -4 12 C-4.99 12.495 -4.99 12.495 -6 13 C-3.10933941 3.40546697 -3.10933941 3.40546697 0 0 Z " fill="#3E1D0F" transform="translate(322,163)"/>
<path d="M0 0 C0.33 0 0.66 0 1 0 C2.33257403 9.41002278 2.33257403 9.41002278 1 14 C0.67 14 0.34 14 0 14 C-1.09321611 9.49048355 -2.13999677 4.27999354 0 0 Z " fill="#0C0C0C" transform="translate(2,394)"/>
<path d="M0 0 C3.67033927 3.27708863 5.69281189 6.71522208 8 11 C7.01 10.67 6.02 10.34 5 10 C5 9.34 5 8.68 5 8 C3.68 7.67 2.36 7.34 1 7 C0.67 4.69 0.34 2.38 0 0 Z " fill="#DF6433" transform="translate(175,386)"/>
<path d="M0 0 C2 1 2 1 2.8515625 3.28515625 C3.10679688 4.20167969 3.36203125 5.11820312 3.625 6.0625 C3.88539062 6.98160156 4.14578125 7.90070313 4.4140625 8.84765625 C4.60742188 9.55792969 4.80078125 10.26820313 5 11 C0.68393782 8.00518135 0.68393782 8.00518135 -1 6 C-0.875 2.6875 -0.875 2.6875 0 0 Z " fill="#381E0E" transform="translate(102,313)"/>
<path d="M0 0 C0.33 0 0.66 0 1 0 C1.24979445 1.91408757 1.47408014 3.83151611 1.6875 5.75 C1.87892578 7.35101563 1.87892578 7.35101563 2.07421875 8.984375 C2 12 2 12 -1 16 C-0.67 10.72 -0.34 5.44 0 0 Z " fill="#5A2615" transform="translate(142,212)"/>
<path d="M0 0 C0.93423645 3.01031744 1.04449911 3.86650268 0 7 C-0.66 7 -1.32 7 -2 7 C-2.33 6.34 -2.66 5.68 -3 5 C-3.99 4.67 -4.98 4.34 -6 4 C-6 3.34 -6 2.68 -6 2 C-4.02 1.34 -2.04 0.68 0 0 Z " fill="#F3692C" transform="translate(328,410)"/>
<path d="M0 0 C1.12796479 3.38389438 0.80041938 5.55819666 0 9 C-0.34403308 11.33177975 -0.67949202 13.66487041 -1 16 C-1.66 16 -2.32 16 -3 16 C-2.52013969 10.43109483 -1.70084819 5.32932432 0 0 Z " fill="#D15E2C" transform="translate(278,141)"/>
<path d="M0 0 C0.33 0.99 0.66 1.98 1 3 C1.66 3 2.32 3 3 3 C2.67 3.66 2.34 4.32 2 5 C1.45859375 4.67257813 0.9171875 4.34515625 0.359375 4.0078125 C-2.50719067 2.78335233 -4.6452987 2.80107854 -7.75 2.875 C-8.73484375 2.89304687 -9.7196875 2.91109375 -10.734375 2.9296875 C-11.48203125 2.95289062 -12.2296875 2.97609375 -13 3 C-12.67 2.34 -12.34 1.68 -12 1 C-9.27734375 0.5859375 -9.27734375 0.5859375 -5.9375 0.375 C-4.83277344 0.30023438 -3.72804688 0.22546875 -2.58984375 0.1484375 C-1.73519531 0.09945312 -0.88054687 0.05046875 0 0 Z " fill="#3F1B13" transform="translate(323,81)"/>
<path d="M0 0 C9.41002278 -0.3690205 9.41002278 -0.3690205 14 2 C14 2.33 14 2.66 14 3 C11.69 3.33 9.38 3.66 7 4 C7 3.01 7 2.02 7 1 C4.69 1 2.38 1 0 1 C0 0.67 0 0.34 0 0 Z " fill="#F06A2F" transform="translate(243,64)"/>
<path d="M0 0 C3.96 1.98 3.96 1.98 8 4 C8 4.99 8 5.98 8 7 C4.22454612 5.90931332 1.52956528 5.0916909 -1 2 C-0.67 1.34 -0.34 0.68 0 0 Z " fill="#0B0B0B" transform="translate(432,9)"/>
<path d="M0 0 C0.144375 0.598125 0.28875 1.19625 0.4375 1.8125 C0.8872439 3.56150404 1.42892341 5.28677023 2 7 C0.71034824 8.37562854 -0.62689293 9.70766393 -2 11 C-2.66 11 -3.32 11 -4 11 C-3.52269162 9.5410574 -3.04308958 8.08286504 -2.5625 6.625 C-2.29566406 5.81289063 -2.02882813 5.00078125 -1.75390625 4.1640625 C-1 2 -1 2 0 0 Z " fill="#E4622F" transform="translate(348,326)"/>
<path d="M0 0 C0.33 1.32 0.66 2.64 1 4 C0.34 4 -0.32 4 -1 4 C-1.4021875 5.7015625 -1.4021875 5.7015625 -1.8125 7.4375 C-2.204375 8.613125 -2.59625 9.78875 -3 11 C-3.99 11.33 -4.98 11.66 -6 12 C-4.43358249 7.69235185 -2.31663844 3.93828536 0 0 Z " fill="#D55D32" transform="translate(120,152)"/>
<path d="M0 0 C3.96 0 7.92 0 12 0 C12.33 1.32 12.66 2.64 13 4 C12.46375 3.67 11.9275 3.34 11.375 3 C7.40328905 1.32770065 4.02922547 1.65692484 0 3 C0 2.01 0 1.02 0 0 Z " fill="#DD6430" transform="translate(326,156)"/>
<path d="M0 0 C0.99 0.33 1.98 0.66 3 1 C0.525 4.465 0.525 4.465 -2 8 C-2.66 7.01 -3.32 6.02 -4 5 C-2.68 3.35 -1.36 1.7 0 0 Z " fill="#0B0B0B" transform="translate(26,43)"/>
<path d="M0 0 C2.31 0.66 4.62 1.32 7 2 C7 2.99 7 3.98 7 5 C4.03 4.01 1.06 3.02 -2 2 C-1.34 1.34 -0.68 0.68 0 0 Z " fill="#0C0C0C" transform="translate(421,5)"/>
<path d="M0 0 C2.40034102 3.60051153 4.32187705 6.96144535 3.625 11.375 C3.41875 11.91125 3.2125 12.4475 3 13 C0.41073669 10.41073669 0.62601957 8.97294721 0.375 5.375 C0.30023438 4.37210937 0.22546875 3.36921875 0.1484375 2.3359375 C0.09945312 1.56507813 0.05046875 0.79421875 0 0 Z " fill="#522710" transform="translate(206,381)"/>
<path d="M0 0 C0.33 0 0.66 0 1 0 C1.19493195 2.27020744 1.38070418 4.54120289 1.5625 6.8125 C1.66691406 8.07707031 1.77132813 9.34164063 1.87890625 10.64453125 C2 14 2 14 1 17 C0.34 17 -0.32 17 -1 17 C-0.67 11.39 -0.34 5.78 0 0 Z " fill="#D16025" transform="translate(357,276)"/>
<path d="M0 0 C5 7.5 5 7.5 5 11 C4.34 11 3.68 11 3 11 C2.67 9.35 2.34 7.7 2 6 C1.01 6 0.02 6 -1 6 C-0.67 4.02 -0.34 2.04 0 0 Z " fill="#3E1C10" transform="translate(214,404)"/>
<path d="M0 0 C0.66 0.33 1.32 0.66 2 1 C0.02 5.455 0.02 5.455 -2 10 C-2.33 10 -2.66 10 -3 10 C-3.33 8.02 -3.66 6.04 -4 4 C-2.68 3.67 -1.36 3.34 0 3 C0 2.01 0 1.02 0 0 Z " fill="#ED6830" transform="translate(277,403)"/>
<path d="M0 0 C0.33 0 0.66 0 1 0 C1.37010337 3.3309303 1.27461204 4.62731223 -0.75 7.375 C-3 9 -3 9 -5.25 8.75 C-6.11625 8.37875 -6.11625 8.37875 -7 8 C-6.21625 7.236875 -5.4325 6.47375 -4.625 5.6875 C-1.92742283 3.09108195 -1.92742283 3.09108195 0 0 Z " fill="#E46633" transform="translate(343,337)"/>
<path d="M0 0 C2.02907167 3.3146667 2.12742133 5.4315979 1.625 9.25 C1.51414062 10.14203125 1.40328125 11.0340625 1.2890625 11.953125 C1.19367188 12.62859375 1.09828125 13.3040625 1 14 C0.67 14 0.34 14 0 14 C-0.19532961 12.2300132 -0.38098882 10.45895721 -0.5625 8.6875 C-0.66691406 7.70136719 -0.77132813 6.71523438 -0.87890625 5.69921875 C-1 3 -1 3 0 0 Z " fill="#E9642D" transform="translate(357,331)"/>
<path d="M0 0 C0.66 0 1.32 0 2 0 C0.84414715 3.91211733 -0.35534962 6.8745041 -3 10 C-3.33 8.02 -3.66 6.04 -4 4 C-3.34 4 -2.68 4 -2 4 C-1.34 2.68 -0.68 1.36 0 0 Z " fill="#2E170A" transform="translate(110,166)"/>
<path d="M0 0 C2.95183101 2.95183101 3.08663988 5.95511947 4 10 C3.01 10.33 2.02 10.66 1 11 C1 8.36 1 5.72 1 3 C0.34 3 -0.32 3 -1 3 C-0.67 2.01 -0.34 1.02 0 0 Z " fill="#DD5F2E" transform="translate(346,118)"/>
<path d="M0 0 C0.99 0 1.98 0 3 0 C2.67 2.64 2.34 5.28 2 8 C1.01 8 0.02 8 -1 8 C-0.67 5.36 -0.34 2.72 0 0 Z " fill="#0B0B0B" transform="translate(1,97)"/>
<path d="M0 0 C0.33 0.99 0.66 1.98 1 3 C-0.65 4.65 -2.3 6.3 -4 8 C-4.66 7.67 -5.32 7.34 -6 7 C-4.02 4.69 -2.04 2.38 0 0 Z " fill="#DD632F" transform="translate(232,69)"/>
<path d="M0 0 C1.65 0 3.3 0 5 0 C5.33 0.66 5.66 1.32 6 2 C7.89533342 2.46523063 7.89533342 2.46523063 10.0625 2.625 C11.361875 2.74875 12.66125 2.8725 14 3 C14 3.33 14 3.66 14 4 C5.96498906 4.63019694 5.96498906 4.63019694 1.9375 2 C1.298125 1.34 0.65875 0.68 0 0 Z " fill="#3B190B" transform="translate(257,385)"/>
<path d="M0 0 C0.33 0 0.66 0 1 0 C1.33 2.97 1.66 5.94 2 9 C1.01 9.33 0.02 9.66 -1 10 C-1.125 3.375 -1.125 3.375 0 0 Z " fill="#3A1F11" transform="translate(405,279)"/>
<path d="M0 0 C0.33 0 0.66 0 1 0 C1.95261487 4.76307437 2.08333357 9.1666528 2 14 C-0.67318976 8.83183314 -0.98463588 5.79841127 0 0 Z " fill="#D56025" transform="translate(362,191)"/>
<path d="M0 0 C0.99 0.495 0.99 0.495 2 1 C2.625 3.0625 2.625 3.0625 3 5 C3.66 4.67 4.32 4.34 5 4 C5 5.65 5 7.3 5 9 C4.01 9.495 4.01 9.495 3 10 C0.70366176 6.55549263 0.45983515 4.06187717 0 0 Z " fill="#EA672B" transform="translate(351,186)"/>
<path d="M0 0 C0 3.19219704 -0.23605791 4.39608549 -2 7 C-4.625 8.25 -4.625 8.25 -7 9 C-6.02180976 7.68677212 -5.0424189 6.37443848 -4.0625 5.0625 C-3.51722656 4.33160156 -2.97195312 3.60070312 -2.41015625 2.84765625 C-1 1 -1 1 0 0 Z " fill="#DB602E" transform="translate(143,123)"/>
<path d="M0 0 C0 0.66 0 1.32 0 2 C-3.375 2.625 -3.375 2.625 -7 3 C-7.66 2.34 -8.32 1.68 -9 1 C-2.25 -1.125 -2.25 -1.125 0 0 Z " fill="#0B0B0B" transform="translate(88,3)"/>
<path d="M0 0 C0.99 0.66 1.98 1.32 3 2 C1.29374499 4.78388975 0.52373261 5.85384206 -2.6875 6.75 C-3.8321875 6.87375 -3.8321875 6.87375 -5 7 C-3.35 4.69 -1.7 2.38 0 0 Z " fill="#DF612E" transform="translate(281,379)"/>
<path d="M0 0 C2.72426311 2.35277269 3.8141763 4.62496331 5 8 C3.35 8 1.7 8 0 8 C0 5.36 0 2.72 0 0 Z " fill="#3C1C0F" transform="translate(116,342)"/>
<path d="M0 0 C0.99 1.32 1.98 2.64 3 4 C2.34 4.66 1.68 5.32 1 6 C0.01 5.67 -0.98 5.34 -2 5 C-2 5.66 -2 6.32 -2 7 C-2.66 6.67 -3.32 6.34 -4 6 C-2.68 4.02 -1.36 2.04 0 0 Z " fill="#E7642F" transform="translate(125,145)"/>
<path d="M0 0 C0 4.05480631 -1.54870092 5.84832975 -4 9 C-4.99 9 -5.98 9 -7 9 C-4.69 6.03 -2.38 3.06 0 0 Z " fill="#4F1E0E" transform="translate(256,117)"/>
<path d="M0 0 C1 2 1 2 0.44140625 3.9453125 C0.15136719 4.66460937 -0.13867188 5.38390625 -0.4375 6.125 C-0.72496094 6.84945312 -1.01242188 7.57390625 -1.30859375 8.3203125 C-1.53675781 8.87460938 -1.76492187 9.42890625 -2 10 C-2.99 10 -3.98 10 -5 10 C-3.66511872 6.40608886 -2.03977277 3.24509304 0 0 Z " fill="#471E0D" transform="translate(178,110)"/>
<path d="M0 0 C2.31 0 4.62 0 7 0 C5.35 1.65 3.7 3.3 2 5 C0 1.125 0 1.125 0 0 Z " fill="#301A10" transform="translate(157,104)"/>
<path d="M0 0 C0.66 0 1.32 0 2 0 C2 0.99 2 1.98 2 3 C2.99 3 3.98 3 5 3 C5.33 4.32 5.66 5.64 6 7 C5.01 7.33 4.02 7.66 3 8 C0 2.25 0 2.25 0 0 Z " fill="#2E1911" transform="translate(274,87)"/>
<path d="M0 0 C0 0.66 0 1.32 0 2 C-1.96147874 3.38938077 -3.96166576 4.7260411 -6 6 C-6.66 5.01 -7.32 4.02 -8 3 C-2.25 0 -2.25 0 0 0 Z " fill="#C35834" transform="translate(202,82)"/>
<path d="M0 0 C1.32 0.33 2.64 0.66 4 1 C3.01 2.485 3.01 2.485 2 4 C-0.3431213 3.74438677 -2.67843403 3.40729228 -5 3 C-5.33 2.34 -5.66 1.68 -6 1 C-3.69 1.66 -1.38 2.32 1 3 C0.67 2.01 0.34 1.02 0 0 Z " fill="#EE662A" transform="translate(237,430)"/>
<path d="M0 0 C3.375 0.6875 3.375 0.6875 7 2 C8.4375 4.625 8.4375 4.625 9 7 C5.18315774 5.44499019 2.80804268 2.96404505 0 0 Z " fill="#D95F2C" transform="translate(156,389)"/>
<path d="M0 0 C0.7734375 0.495 0.7734375 0.495 1.5625 1 C4.78026512 2.32010877 7.5570528 2.13242105 11 2 C10.67 2.66 10.34 3.32 10 4 C7.36 4 4.72 4 2 4 C1.34 2.68 0.68 1.36 0 0 Z " fill="#E26631" transform="translate(325,344)"/>
<path d="M0 0 C2.67927341 4.01891012 2.15601248 6.24161923 2 11 C1.67 11 1.34 11 1 11 C1 9.02 1 7.04 1 5 C0.34 5 -0.32 5 -1 5 C-0.67 3.35 -0.34 1.7 0 0 Z " fill="#EB6832" transform="translate(360,179)"/>
<path d="M0 0 C0.99 0.99 1.98 1.98 3 3 C3.99 2.01 4.98 1.02 6 0 C5.67 1.65 5.34 3.3 5 5 C3.35 4.67 1.7 4.34 0 4 C0 2.68 0 1.36 0 0 Z " fill="#CD592E" transform="translate(283,111)"/>
<path d="M0 0 C0.33 1.32 0.66 2.64 1 4 C-0.32 4.99 -1.64 5.98 -3 7 C-3.33 6.01 -3.66 5.02 -4 4 C-2.68 2.68 -1.36 1.36 0 0 Z " fill="#291911" transform="translate(198,86)"/>
</svg>
